<?xml version="1.0" standalone="no"?>
<!DOCTYPE svg PUBLIC "-//W3C//DTD SVG 20010904//EN"
 "http://www.w3.org/TR/2001/REC-SVG-20010904/DTD/svg10.dtd">
<svg version="1.0" xmlns="http://www.w3.org/2000/svg"
 width="810.000000pt" height="709.000000pt" viewBox="0 0 810.000000 709.000000"
 preserveAspectRatio="xMidYMid meet">

<g transform="translate(0.000000,709.000000) scale(0.100000,-0.100000)"
fill="#000000" stroke="none">
<path d="M3915 6495 c-240 -44 -394 -122 -550 -280 -133 -134 -217 -302 -246
-488 -17 -108 -6 -275 24 -376 l25 -83 -24 -36 c-121 -178 -9 -406 211 -429
l52 -6 16 -51 c24 -76 84 -171 153 -244 l61 -64 -6 -85 -6 -85 -150 -38 c-159
-40 -216 -60 -317 -111 -71 -35 -178 -112 -222 -158 -17 -17 -33 -31 -36 -31
-9 0 -133 328 -250 659 -25 68 -40 96 -56 103 -25 12 -29 11 -594 -197 -190
-70 -363 -133 -385 -141 -42 -16 -55 -29 -55 -56 0 -14 154 -447 184 -520 6
-12 -3 -23 -37 -42 -51 -31 -127 -108 -152 -155 -44 -86 -49 -225 -12 -326 74
-203 182 -321 330 -359 43 -11 74 -28 115 -64 31 -27 95 -81 141 -121 238
-204 507 -235 756 -88 68 40 170 132 213 192 l21 30 1 -372 0 -371 25 -31 c15
-16 38 -31 53 -33 l27 -3 0 -464 0 -463 -78 -23 c-87 -25 -169 -76 -223 -138
-59 -69 -101 -217 -75 -265 12 -22 13 -22 361 -22 l349 0 80 55 c44 30 83 55
86 55 3 0 5 -22 5 -50 0 -38 4 -52 19 -60 25 -13 221 -13 255 0 l26 10 0 185
0 185 65 0 65 0 0 -180 0 -180 25 -16 c20 -13 46 -15 139 -13 74 3 120 9 128
17 6 6 15 33 18 58 l5 45 55 -39 c106 -76 82 -72 459 -72 l341 0 15 24 c21 31
8 110 -31 197 -46 101 -159 185 -286 211 l-58 12 0 371 c0 205 -3 413 -6 463
-7 98 -10 94 49 106 16 4 36 20 48 39 20 31 20 41 13 395 -3 199 -3 362 0 362
4 0 19 -15 34 -32 70 -85 122 -133 183 -170 66 -39 67 -40 57 -69 -8 -22 -16
-29 -36 -29 -82 0 -174 -147 -114 -179 11 -6 97 -32 193 -60 222 -63 456 -131
588 -170 155 -46 174 -43 187 36 8 52 -9 106 -45 136 l-27 23 27 94 c43 152
43 155 18 178 -18 18 -20 26 -12 59 l9 38 68 7 c166 16 282 131 357 353 19 56
24 91 24 175 0 99 -2 109 -33 172 -37 75 -83 119 -173 168 l-61 32 31 27 c45
38 151 268 151 327 0 48 -31 99 -92 155 l-62 56 27 33 c58 68 94 172 83 235
-8 43 -59 103 -103 121 -44 19 -128 18 -169 -2 -43 -21 -70 -65 -91 -149 -13
-53 -14 -78 -6 -116 11 -56 19 -50 -91 -69 -122 -21 -155 -64 -180 -237 -21
-145 -20 -181 4 -221 24 -39 24 -40 4 -108 -13 -46 -19 -54 -40 -54 -37 0 -95
-27 -131 -62 -17 -16 -36 -27 -42 -24 -5 4 -63 77 -127 164 -168 226 -219 286
-288 342 -124 98 -251 154 -491 215 l-130 33 -6 74 c-3 40 -7 78 -9 83 -3 6
25 41 62 78 51 51 79 92 118 168 27 56 50 107 50 114 0 8 21 15 58 19 80 9
155 48 197 103 46 60 58 101 53 187 -3 61 -8 82 -36 125 l-32 53 19 66 c74
251 42 499 -93 726 -130 219 -389 385 -671 431 -109 18 -274 18 -370 0z m-174
-721 c35 -38 135 -107 204 -142 151 -75 373 -119 556 -108 94 5 135 11 227 31
l23 6 -3 -348 c-4 -326 -5 -352 -26 -413 -31 -95 -88 -185 -162 -260 l-65 -65
-3 65 c-3 97 -8 110 -39 110 -27 0 -63 -25 -63 -43 0 -19 -51 -77 -80 -92 -61
-32 -100 -16 -131 50 -13 28 -18 30 -75 33 -66 3 -94 -11 -94 -48 0 -40 -67
-63 -113 -39 -30 16 -87 70 -87 84 0 21 -41 55 -65 55 -29 0 -34 -15 -37 -110
l-3 -65 -70 70 c-82 82 -148 198 -171 303 -11 49 -16 152 -19 379 l-4 312 52
29 c62 35 156 131 186 190 12 23 25 42 29 42 5 0 19 -12 33 -26z m-361 -585
l0 -80 -32 24 c-41 30 -63 38 -83 31 -26 -10 -16 -48 18 -69 18 -11 42 -40 54
-65 12 -25 26 -50 31 -55 5 -6 12 -32 15 -58 l7 -47 -33 0 c-101 1 -197 104
-197 213 0 92 90 187 178 187 l42 0 0 -81z m1544 67 c44 -18 92 -79 106 -134
31 -123 -70 -252 -198 -252 -21 0 -22 3 -16 43 6 43 44 127 73 161 9 10 26 22
39 27 26 10 31 53 7 63 -20 7 -64 -10 -92 -36 l-23 -21 0 81 0 82 35 0 c20 0
50 -6 69 -14z m-2321 -741 c20 -55 59 -163 87 -240 29 -77 69 -187 90 -245 40
-112 156 -424 186 -502 10 -26 16 -50 13 -53 -3 -3 -98 -39 -210 -80 -112 -41
-250 -92 -306 -114 l-103 -39 -40 40 c-39 39 -39 40 -28 81 l11 42 164 59
c190 68 214 84 178 119 -12 13 -26 11 -107 -18 -51 -18 -127 -46 -169 -62
l-77 -30 -16 35 c-9 19 -16 35 -14 37 2 1 109 40 238 87 233 84 235 85 235
114 0 21 -5 30 -20 32 -11 1 -134 -40 -273 -92 -139 -52 -260 -92 -271 -89
-15 4 -17 12 -14 51 13 140 -144 228 -290 164 -26 -11 -49 -17 -51 -13 -7 11
-90 234 -138 369 -22 63 -37 116 -34 119 3 3 114 46 248 95 134 49 304 111
378 138 74 28 169 63 210 79 41 16 78 26 81 23 4 -4 23 -52 42 -107z m3720
-19 c54 -22 70 -49 65 -103 -6 -60 -30 -112 -74 -158 -53 -56 -48 -82 33 -166
37 -38 71 -79 76 -91 10 -27 -3 -65 -63 -194 -45 -97 -62 -116 -103 -119 -5 0
-14 -8 -21 -17 -12 -16 -19 -16 -69 -6 -134 28 -242 -73 -221 -207 5 -38 4
-45 -10 -45 -9 0 -34 -16 -56 -36 -58 -53 -77 -138 -44 -207 16 -32 15 -34
-14 -65 -40 -43 -55 -92 -50 -159 5 -54 5 -54 -21 -48 -14 4 -27 8 -28 9 -2 1
13 92 32 202 36 207 54 281 125 523 42 143 43 145 23 161 -41 33 -43 49 -24
189 11 74 26 142 35 156 17 26 49 37 155 54 95 15 100 24 85 147 -7 65 10 130
46 166 32 32 71 36 123 14z m-2693 -312 c0 -3 21 -139 46 -302 25 -164 52
-337 59 -387 8 -49 24 -153 35 -230 12 -77 27 -174 35 -215 7 -41 11 -76 10
-78 -2 -2 -20 28 -40 65 -50 90 -274 473 -291 498 -23 32 -17 46 56 121 39 39
70 78 70 86 0 19 -32 47 -105 91 -33 20 -66 41 -74 46 -11 7 2 38 63 154 42
80 82 148 89 150 17 8 47 8 47 1z m1001 -12 c4 -4 39 -70 78 -147 63 -122 70
-141 56 -150 -111 -69 -167 -107 -171 -120 -4 -10 12 -36 42 -71 27 -30 60
-68 73 -84 l23 -30 -102 -177 c-57 -98 -135 -233 -173 -300 -39 -68 -72 -121
-73 -120 -3 2 28 210 97 647 37 241 77 494 85 538 5 31 8 33 32 27 15 -3 30
-9 33 -13z m-1171 -28 c0 -4 -30 -64 -67 -135 -55 -104 -66 -132 -57 -146 6
-10 47 -42 92 -72 l82 -53 -65 -70 c-36 -39 -65 -78 -65 -87 0 -17 40 -89 215
-391 43 -74 116 -200 162 -280 l83 -145 0 -170 c0 -111 -5 -189 -13 -223 -24
-90 -104 -186 -193 -232 -47 -24 -56 -25 -244 -25 l-195 0 4 640 c2 352 1 650
-3 662 -9 29 -35 37 -56 18 -16 -15 -18 -41 -19 -248 l-2 -231 -45 -55 c-146
-181 -256 -257 -413 -288 -178 -35 -322 15 -515 179 l-109 92 44 18 c135 56
195 87 236 123 37 33 47 50 57 95 l13 55 104 38 c57 21 111 41 119 43 8 3 42
-18 75 -46 62 -53 89 -59 109 -27 9 16 4 25 -37 63 -48 43 -48 44 -25 53 12 5
79 30 148 56 162 62 180 72 180 107 0 15 -29 105 -65 199 -36 94 -65 176 -65
183 0 15 79 91 144 141 70 52 191 111 288 139 92 27 98 29 98 20z m1410 -31
c146 -50 253 -115 350 -214 19 -19 109 -133 198 -252 191 -252 190 -249 94
-312 -109 -72 -143 -105 -140 -134 2 -14 10 -27 20 -29 9 -2 58 25 108 60 71
48 94 59 98 48 2 -8 26 -36 53 -62 l48 -47 -21 -129 -22 -130 -57 5 c-67 6
-91 -11 -109 -76 -8 -32 -16 -41 -33 -41 -35 0 -47 -13 -66 -74 l-17 -56 -71
50 c-46 31 -99 83 -146 140 -87 107 -86 102 -87 376 0 95 -3 179 -6 188 -7 19
-49 21 -61 4 -4 -7 -6 -307 -4 -666 l4 -654 -189 4 c-183 3 -191 4 -245 30
-66 33 -118 81 -155 144 -52 88 -56 115 -55 309 l2 179 44 73 c25 41 45 75 45
77 0 3 54 97 185 321 143 243 185 319 185 335 0 8 -29 47 -65 87 l-65 72 85
55 c47 31 88 62 91 70 3 7 -26 75 -65 150 l-70 137 32 -6 c18 -4 66 -18 107
-32z m-2840 -358 c33 -17 60 -62 60 -97 -1 -49 -26 -72 -132 -119 -80 -36
-104 -50 -106 -67 -7 -47 34 -41 176 25 39 18 84 33 98 33 60 0 103 -45 104
-107 0 -60 -27 -84 -148 -134 -108 -44 -133 -66 -107 -93 17 -17 27 -14 158
43 27 12 62 21 78 21 92 0 130 -117 60 -184 -35 -34 -196 -104 -268 -117 -101
-19 -207 20 -278 103 -52 61 -113 190 -131 277 -23 115 0 196 80 279 43 46 74
65 196 118 84 37 117 41 160 19z m4194 -196 c255 -76 340 -218 276 -459 -57
-215 -153 -318 -305 -328 -64 -4 -88 0 -188 32 -97 30 -120 42 -146 71 -45 51
-44 104 3 151 19 19 43 34 53 34 11 0 59 -13 108 -30 101 -34 118 -36 135 -15
20 25 -2 40 -118 81 -114 40 -147 61 -157 101 -14 58 39 133 94 133 15 0 74
-16 131 -35 57 -19 112 -35 121 -35 20 0 36 37 22 51 -5 5 -54 25 -109 45 -54
19 -107 44 -116 55 -21 25 -23 84 -4 118 30 54 88 63 200 30z m-472 -161 c-20
-73 -37 -135 -40 -138 -2 -3 -17 11 -33 30 -23 27 -29 44 -29 83 0 26 7 61 15
77 14 27 87 80 111 80 7 0 -3 -51 -24 -132z m13 -595 c66 -19 158 -46 205 -60
47 -13 88 -27 92 -31 4 -4 3 -25 -3 -45 -8 -29 -14 -37 -27 -33 -13 4 -344
101 -462 136 -26 7 -28 19 -10 66 10 26 -4 28 205 -33z m-148 -122 c222 -63
457 -132 460 -134 3 -4 -44 -188 -50 -193 -5 -5 -599 165 -608 175 -8 8 43
191 53 191 4 0 70 -18 145 -39z m-192 -235 c333 -98 547 -160 590 -171 27 -7
57 -23 67 -35 20 -25 24 -60 7 -60 -19 0 -128 30 -314 85 -99 30 -254 74 -344
99 -90 25 -166 48 -169 51 -3 2 3 16 12 30 21 32 46 32 151 1z m-1130 -65 c23
-97 77 -183 150 -243 92 -74 144 -91 310 -97 l140 -6 3 -462 2 -463 -385 0
-385 0 0 461 c0 428 -1 463 -17 475 -10 7 -25 14 -33 14 -8 0 -42 13 -76 29
-43 20 -65 26 -77 19 -39 -22 -3 -63 83 -94 l50 -18 0 -443 0 -443 -380 0
-380 0 0 465 0 465 124 0 c95 0 139 5 188 20 83 25 167 86 218 157 39 55 80
161 80 209 l0 24 184 0 184 0 17 -69z"/>
<path d="M3678 5436 c-85 -23 -125 -63 -95 -94 15 -14 21 -14 67 8 57 27 129
31 178 11 37 -15 62 -3 62 31 0 39 -130 67 -212 44z"/>
<path d="M4385 5441 c-51 -13 -75 -30 -75 -55 0 -32 17 -36 81 -20 58 16 112
9 170 -21 35 -18 59 -10 59 20 0 29 -34 51 -107 70 -61 16 -81 17 -128 6z"/>
<path d="M3703 5256 c-89 -40 -88 -160 1 -203 41 -19 73 -13 115 23 92 77 -5
229 -116 180z"/>
<path d="M4403 5255 c-35 -15 -63 -60 -63 -100 0 -77 82 -131 153 -101 45 18
67 51 67 101 0 49 -22 83 -66 101 -41 17 -50 17 -91 -1z"/>
<path d="M4007 5243 c-10 -15 -37 -175 -37 -215 0 -82 51 -132 137 -132 62 -1
95 22 77 52 -9 13 -22 16 -60 14 -40 -3 -53 1 -68 17 -17 18 -18 30 -11 98 15
141 13 168 -12 171 -11 2 -23 -1 -26 -5z"/>
<path d="M4287 4820 c-88 -70 -226 -85 -331 -37 -69 32 -61 31 -80 11 -24 -23
-6 -47 56 -75 45 -20 70 -23 158 -24 89 0 113 4 155 23 85 39 131 100 89 116
-21 8 -18 9 -47 -14z"/>
<path d="M2109 4290 c-60 -56 -114 -86 -190 -106 -105 -28 -108 -38 -53 -147
74 -149 173 -227 288 -230 44 -1 62 4 87 22 28 21 32 21 48 7 9 -8 38 -25 64
-36 40 -18 53 -20 81 -10 111 36 182 207 157 376 -14 94 -26 118 -54 110 -12
-3 -56 -15 -97 -26 -45 -12 -97 -19 -129 -18 -52 3 -56 5 -86 48 -17 25 -41
46 -52 48 -12 2 -37 -13 -64 -38z m86 -59 c79 -119 93 -260 33 -343 -16 -24
-26 -28 -66 -28 -91 1 -178 63 -239 171 -47 81 -46 89 7 103 65 17 137 55 184
98 23 20 44 37 48 38 4 0 19 -17 33 -39z m325 -119 c0 -2 -5 -12 -10 -23 -18
-32 -90 -20 -90 16 0 5 22 10 50 10 28 0 50 -1 50 -3z m-170 -8 c0 -13 -21
-44 -30 -44 -15 0 -12 37 3 43 17 8 27 8 27 1z m109 -140 c17 -14 31 -29 31
-32 0 -4 -25 -5 -55 -4 -30 2 -69 -1 -85 -7 -24 -8 -30 -7 -30 4 0 20 58 65
85 65 13 0 37 -12 54 -26z"/>
<path d="M2125 4134 c-14 -15 -17 -35 -5 -36 15 -1 78 37 74 44 -9 14 -52 9
-69 -8z"/>
<path d="M1992 4068 c-7 -7 -12 -20 -12 -30 0 -17 2 -17 30 -3 16 8 36 15 45
15 20 0 19 16 -1 24 -25 9 -49 7 -62 -6z"/>
<path d="M2182 4005 c-13 -13 -46 -33 -74 -43 -48 -18 -50 -20 -31 -31 27 -14
78 -14 103 -1 25 14 54 100 33 100 -5 0 -18 -11 -31 -25z"/>
</g>
</svg>
