<?xml version="1.0" standalone="no"?>
<!DOCTYPE svg PUBLIC "-//W3C//DTD SVG 20010904//EN"
 "http://www.w3.org/TR/2001/REC-SVG-20010904/DTD/svg10.dtd">
<svg version="1.0" xmlns="http://www.w3.org/2000/svg"
 width="1408.000000pt" height="768.000000pt" viewBox="0 0 1408.000000 768.000000"
 preserveAspectRatio="xMidYMid meet">

<g transform="translate(0.000000,768.000000) scale(0.100000,-0.100000)"
fill="#000000" stroke="none">
<path d="M6899 6632 c-93 -49 -155 -155 -161 -278 l-3 -52 -205 6 c-228 5
-349 -5 -530 -44 -580 -127 -982 -474 -922 -796 37 -198 203 -350 470 -429
l42 -12 0 -82 0 -82 -44 -5 c-24 -3 -67 -16 -97 -30 -246 -113 -346 -407 -223
-650 57 -112 207 -221 323 -235 l50 -6 6 -56 c30 -269 175 -539 385 -720 40
-35 65 -63 58 -65 -327 -103 -500 -170 -601 -232 l-60 -37 -19 23 c-45 55 -10
119 106 194 109 70 140 118 140 215 0 52 -5 77 -26 116 -80 154 -278 286 -538
358 -63 17 -105 21 -265 21 -178 1 -196 -1 -289 -27 -423 -118 -731 -461 -797
-887 -7 -45 -9 -128 -6 -205 12 -288 118 -532 322 -743 81 -83 82 -85 74 -121
-14 -61 -10 -228 7 -294 57 -221 226 -389 455 -454 61 -17 161 -18 2158 -17
2017 1 2095 2 2108 20 10 14 13 74 13 264 l0 246 78 70 c236 213 362 324 370
324 4 0 13 -21 20 -46 26 -98 116 -145 174 -91 46 43 67 121 114 433 4 26 39
62 192 200 103 93 248 230 323 304 121 120 140 144 177 220 44 91 72 206 72
292 -1 147 -70 316 -173 420 -118 120 -242 176 -413 185 l-101 6 -6 146 c-7
150 -22 280 -57 501 l-21 126 43 45 c81 84 127 221 115 339 -9 81 -38 158 -92
245 -25 40 -55 95 -67 121 -22 52 -29 143 -15 206 8 31 6 39 -13 58 -30 30
-63 22 -149 -34 -231 -149 -376 -451 -332 -691 15 -85 72 -194 126 -244 l45
-41 -25 -143 c-36 -207 -54 -377 -61 -582 l-7 -180 -81 0 c-71 0 -88 -4 -134
-30 -102 -56 -143 -128 -151 -265 l-6 -95 -58 -75 c-52 -67 -347 -390 -409
-448 l-25 -23 -54 37 c-94 64 -247 131 -459 201 -113 37 -207 69 -209 70 -2 1
34 37 79 80 190 178 326 431 360 671 12 77 14 83 39 88 118 24 188 60 261 133
186 188 185 476 -2 668 -51 52 -158 110 -232 125 l-56 11 0 112 0 112 55 7
c120 14 212 68 263 154 24 41 27 57 27 132 0 73 -4 93 -27 138 -77 148 -176
218 -480 336 -80 31 -238 102 -350 157 -202 101 -363 171 -468 204 -30 10 -56
19 -58 20 -8 7 38 82 65 107 30 29 107 67 135 68 10 0 25 11 34 25 14 22 15
32 5 66 -39 129 -187 186 -312 121z m2571 -1299 c11 -25 42 -82 70 -127 27
-44 56 -100 64 -123 l15 -43 -88 0 c-112 0 -128 11 -141 95 -12 76 -35 106
-94 125 l-47 15 30 46 c17 25 59 74 93 109 l63 63 7 -57 c4 -31 17 -77 28
-103z m-1577 -764 l-1 -422 -124 -124 c-67 -68 -167 -165 -220 -214 l-97 -90
-152 131 c-83 72 -173 147 -200 168 -45 34 -48 40 -49 82 0 56 -22 90 -57 90
-41 0 -63 -27 -63 -77 0 -82 -52 -143 -122 -143 -79 0 -128 53 -128 139 0 31
-6 48 -25 66 -29 30 -35 31 -69 4 -22 -17 -26 -28 -26 -69 l0 -48 -202 -170
-202 -171 -55 49 c-31 26 -131 122 -222 212 l-166 163 -2 311 -2 311 268 7
c657 17 1339 91 1833 200 36 8 70 14 75 15 7 1 9 -145 8 -420z m-2293 -163 c0
-190 -3 -347 -7 -349 -5 -3 -36 4 -70 14 -79 25 -161 97 -199 175 -73 150 -24
340 112 437 42 30 123 66 152 67 9 0 12 -75 12 -344z m2517 314 c61 -26 138
-103 170 -169 25 -50 28 -67 28 -156 0 -89 -3 -105 -27 -150 -55 -102 -131
-159 -250 -189 l-28 -6 0 351 0 351 33 -7 c17 -4 51 -15 74 -25z m1353 -151
c0 -12 38 -240 45 -276 5 -23 4 -23 -105 -23 -60 0 -110 3 -110 8 0 11 39 254
45 280 5 20 11 22 65 22 37 0 60 -4 60 -11z m67 -591 c-3 -8 -6 -5 -6 6 -1 11
2 17 5 13 3 -3 4 -12 1 -19z m0 -55 c-3 -10 -5 -4 -5 12 0 17 2 24 5 18 2 -7
2 -21 0 -30z m-256 -166 c1 -37 6 -67 11 -67 5 0 6 5 3 10 -3 6 -4 10 -1 10
15 0 13 -20 -4 -35 -20 -18 -20 -17 -20 70 0 102 9 111 11 12z m89 -10 c0 -2
-10 -12 -22 -23 l-23 -19 19 23 c18 21 26 27 26 19z m501 -33 c89 -27 150 -63
214 -128 99 -100 145 -212 145 -351 0 -138 -50 -256 -149 -356 -71 -70 -138
-109 -236 -134 -253 -65 -522 100 -590 360 -21 81 -19 121 6 148 11 12 32 45
47 72 21 41 26 65 27 134 l1 84 58 54 c98 91 201 132 337 132 51 1 107 -5 140
-15z m-4911 -88 c41 -8 94 -19 118 -25 38 -11 41 -13 27 -27 -8 -9 -12 -21 -8
-27 4 -7 -1 -6 -11 2 -14 12 -17 12 -14 1 2 -10 -12 -16 -48 -21 -57 -7 -88
-21 -125 -56 l-27 -25 -15 23 c-9 12 -14 26 -12 30 10 15 -25 18 -40 3 -15
-16 -11 -39 5 -29 5 3 11 1 14 -4 7 -11 -8 -8 -48 8 -16 6 -31 9 -34 6 -3 -3
0 -5 6 -5 13 0 63 -51 57 -59 -2 -3 9 -7 23 -7 15 -1 21 1 15 3 -7 3 -13 9
-13 15 0 7 5 7 14 -1 9 -8 12 -26 8 -60 -11 -114 56 -208 164 -232 52 -12 55
-14 30 -20 -15 -4 -37 -6 -49 -3 -11 2 -24 -1 -28 -7 -7 -12 -94 -20 -116 -12
-6 3 -9 12 -6 20 4 11 2 14 -5 9 -7 -4 -12 -1 -12 8 0 9 4 16 9 16 5 0 8 12 6
28 -2 15 -4 33 -4 40 -1 6 -6 12 -12 12 -5 0 -7 -5 -3 -12 4 -7 3 -8 -4 -4 -7
4 -12 17 -13 29 -1 20 -2 20 -9 -3 -4 -14 -8 -19 -9 -11 -1 7 -7 11 -16 7 -10
-4 -15 1 -15 15 0 11 -4 18 -9 15 -5 -3 -14 1 -21 9 -11 14 -15 14 -29 1 -15
-14 -17 -12 -13 19 5 46 -31 121 -69 140 -35 19 -77 19 -109 0 -33 -19 -84
-19 -100 0 -7 8 -9 15 -4 15 5 0 1 5 -9 11 -9 6 -14 15 -11 21 5 7 1 9 -9 5
-9 -3 -19 -2 -22 4 -4 5 -3 9 2 8 19 -3 31 2 37 16 5 13 2 14 -15 5 -15 -9
-24 -8 -35 1 -13 11 -11 15 18 31 79 42 278 92 278 69 0 -6 -3 -10 -7 -10 -5
1 -14 1 -21 0 -22 -2 8 -26 43 -35 58 -15 69 -16 77 -3 6 9 8 9 8 0 0 -6 -4
-15 -10 -18 -5 -3 -10 -11 -10 -16 0 -6 4 -8 9 -4 5 3 13 0 17 -6 4 -7 3 -9
-2 -6 -6 3 -16 2 -23 -2 -9 -6 -3 -12 20 -20 25 -9 34 -8 40 1 5 7 3 15 -3 19
-6 4 -10 18 -10 33 0 14 -6 26 -12 27 -55 3 -83 26 -46 37 24 6 23 7 -10 13
-21 4 10 7 75 7 61 1 144 -5 185 -12z m4192 -41 c88 -60 85 -213 -6 -278 -25
-17 -45 -22 -98 -22 -65 0 -69 2 -105 37 -32 33 -37 44 -41 96 -5 74 16 123
71 163 54 39 126 40 179 4z m-2301 -45 c56 -16 116 -91 83 -104 -52 -20 -250
-14 -272 8 -11 12 38 71 73 87 46 21 66 23 116 9z m-1467 -112 c-4 -6 -3 -8 3
-5 9 6 93 -73 93 -86 0 -3 -12 -2 -26 1 -18 3 -30 -1 -41 -17 -8 -12 -20 -20
-26 -18 -6 2 -20 -6 -32 -18 -19 -21 -52 -24 -39 -4 8 14 -3 11 -20 -7 -14
-14 -15 -12 -10 15 8 39 -11 95 -49 139 -17 21 -23 30 -13 21 18 -16 71 -14
60 2 -3 5 0 9 6 9 7 0 10 6 7 14 -10 27 6 25 49 -5 26 -17 42 -35 38 -41z
m-1044 38 c0 -2 -7 -7 -16 -10 -8 -3 -12 -2 -9 4 6 10 25 14 25 6z m-139 -19
c-8 -11 -6 -19 8 -35 10 -12 22 -18 26 -14 5 4 5 -1 2 -11 -4 -11 -3 -16 3
-12 6 3 10 1 10 -4 0 -6 5 -11 11 -11 8 0 7 5 -1 15 -7 9 -10 18 -6 22 3 3 6
1 6 -5 0 -7 6 -12 14 -12 8 0 17 -13 21 -29 5 -23 10 -28 23 -24 9 4 19 10 22
15 3 4 4 -20 3 -55 -4 -72 8 -102 56 -134 24 -16 49 -23 82 -23 42 0 55 5 91
38 23 20 38 31 34 25 -4 -8 -2 -13 4 -13 6 0 9 -4 5 -9 -3 -5 0 -13 6 -17 7
-4 9 -3 5 4 -3 6 -2 13 4 17 8 5 12 -7 9 -31 0 -3 8 -12 18 -20 16 -12 16 -15
3 -25 -12 -9 -11 -10 5 -4 19 7 44 9 73 6 6 0 12 -7 12 -15 0 -8 5 -18 12 -22
7 -5 9 -2 5 8 -4 11 0 15 11 13 9 -1 24 1 32 6 12 5 16 2 17 -12 1 -12 -5 -19
-18 -20 -10 -1 -25 -2 -31 -3 -7 -1 -17 0 -23 3 -11 6 -18 8 -41 10 -8 0 -12
6 -9 11 3 6 1 10 -4 10 -15 0 -13 -11 4 -34 8 -11 15 -28 15 -39 0 -10 4 -16
9 -13 5 3 8 -2 7 -12 -1 -11 6 -16 19 -15 19 1 19 1 3 -11 -10 -7 -15 -16 -11
-19 3 -4 1 -7 -5 -7 -6 0 -14 5 -17 10 -3 6 -1 10 5 10 6 0 9 4 6 9 -7 10 -56
2 -56 -10 0 -5 -7 -9 -16 -9 -8 0 -12 -4 -9 -10 3 -5 -1 -10 -10 -10 -10 0
-13 5 -9 12 4 6 3 8 -4 5 -14 -9 -9 -34 11 -58 27 -31 20 -33 -14 -5 -17 14
-36 26 -42 27 -7 0 -22 2 -34 3 -14 2 -19 -2 -16 -11 3 -7 9 -13 14 -13 4 0 6
-7 3 -15 -5 -13 -8 -13 -21 0 -8 9 -19 13 -24 10 -5 -4 -9 -1 -9 4 0 6 -5 11
-11 11 -5 0 -8 -4 -4 -9 3 -5 1 -12 -5 -16 -5 -3 -10 2 -11 12 0 10 -3 13 -6
6 -10 -25 -21 -12 -21 23 0 36 -14 54 -42 54 -13 0 -13 -1 0 -10 12 -8 11 -10
-7 -10 -13 0 -23 5 -23 10 0 6 -4 10 -10 10 -5 0 -7 -8 -4 -17 4 -14 3 -14 -7
2 -12 19 -12 19 -20 0 -6 -16 -8 -14 -8 11 -1 17 -12 49 -26 70 l-26 39 25
-27 c13 -15 26 -24 29 -22 3 3 8 0 13 -7 5 -8 3 -10 -6 -4 -7 5 -11 4 -7 -1 7
-12 112 -12 114 1 1 5 9 12 17 15 14 4 13 7 -4 17 -16 11 -18 10 -14 -2 4 -10
0 -15 -15 -15 -12 0 -21 -5 -21 -11 0 -8 -4 -8 -13 0 -10 8 -17 7 -25 -1 -9
-9 -12 -8 -12 6 0 9 5 14 10 11 9 -6 12 -2 14 28 1 6 9 17 20 23 17 10 15 12
-13 17 -22 5 -30 11 -26 19 4 7 -1 4 -9 -6 -9 -11 -16 -14 -16 -7 0 7 -5 9
-11 5 -8 -4 -8 -1 -1 13 10 17 8 19 -19 15 -17 -2 -30 0 -30 7 -3 26 -4 30
-13 38 -5 4 -7 4 -3 -2 3 -6 -2 -19 -10 -30 -13 -16 -15 -17 -10 -2 5 13 1 17
-18 17 -13 0 -33 10 -45 22 -11 12 -20 18 -20 12 0 -5 -5 -2 -10 6 -6 10 -10
11 -10 3 0 -7 -8 -13 -17 -13 -13 0 -14 -3 -5 -12 10 -10 17 -10 32 0 18 11
20 10 20 -9 0 -16 -4 -19 -20 -14 -11 3 -28 1 -37 -5 -17 -11 -17 -11 -1 -6
15 4 16 2 7 -13 -8 -12 -23 -17 -50 -16 -38 1 -50 -7 -29 -20 13 -8 13 -35 -1
-35 -5 0 -7 5 -3 12 5 8 2 9 -10 5 -9 -4 -14 -3 -11 2 3 5 1 12 -4 16 -6 3 -7
13 -4 22 4 9 2 14 -3 10 -6 -3 -16 4 -24 16 -11 19 -11 20 1 10 11 -9 22 -8
47 4 17 8 32 20 32 25 0 5 -4 7 -9 3 -5 -3 -12 -1 -16 5 -4 6 -11 7 -17 4 -7
-4 -8 -2 -4 5 4 6 12 9 17 6 5 -3 6 1 3 9 -3 9 -13 16 -21 16 -8 0 -11 5 -8
10 4 6 11 7 17 4 7 -4 8 -2 4 5 -9 14 56 91 132 153 59 49 72 58 53 35z m207
-31 c-2 0 -14 -10 -28 -21 -15 -12 -20 -14 -12 -4 6 9 8 20 4 24 -4 5 -1 5 6
1 6 -4 12 -2 12 4 0 6 5 8 11 5 6 -4 9 -8 7 -9z m-64 -4 c3 -5 -1 -9 -9 -9 -8
0 -12 4 -9 9 3 4 7 8 9 8 2 0 6 -4 9 -8z m774 -47 c22 -15 43 -33 46 -40 11
-29 -85 -80 -129 -69 -52 13 -83 88 -52 126 26 33 67 28 135 -17z m-407 -108
c-10 -9 -11 -8 -5 6 3 10 9 15 12 12 3 -3 0 -11 -7 -18z m775 -42 c-14 -33
-17 -35 -31 -22 -22 22 -19 34 10 41 14 4 25 12 25 18 0 6 3 9 6 6 3 -3 -2
-22 -10 -43z m-61 15 c-3 -5 -12 -10 -18 -10 -7 0 -6 4 3 10 19 12 23 12 15 0z
m3562 -66 c34 -10 68 -13 93 -9 37 6 40 5 45 -22 3 -15 14 -57 25 -93 17 -55
46 -318 36 -327 -3 -4 -416 418 -416 425 0 2 18 25 41 52 l41 49 41 -30 c22
-16 65 -37 94 -45z m-5014 41 c-3 -9 -8 -14 -10 -11 -3 3 -2 9 2 15 9 16 15
13 8 -4z m1277 0 c-10 -12 -8 -16 11 -24 13 -5 27 -7 32 -4 4 2 7 -1 7 -8 0
-7 7 -4 16 7 8 10 13 14 10 8 -3 -6 2 -19 12 -27 17 -16 47 -16 75 -2 6 4 1
-3 -13 -14 -14 -11 -31 -19 -38 -16 -7 3 -11 1 -8 -4 3 -4 -12 -22 -33 -39
-24 -19 -38 -25 -38 -17 0 8 5 11 10 8 6 -4 7 -1 3 6 -6 9 -13 8 -29 -6 -11
-10 -17 -13 -14 -6 4 6 3 14 -3 18 -6 4 -7 11 -4 17 4 7 2 8 -5 4 -6 -4 -9
-12 -6 -17 3 -5 -1 -6 -9 -3 -9 3 -16 10 -16 15 0 5 -13 15 -30 24 -16 9 -30
13 -30 10 0 -4 -5 -3 -11 1 -7 4 9 17 37 31 27 13 56 31 64 39 19 18 26 18 10
-1z m-1220 -19 c0 -11 -19 -15 -25 -6 -3 5 1 10 9 10 9 0 16 -2 16 -4z m1317
-18 c-3 -8 -6 -5 -6 6 -1 11 2 17 5 13 3 -3 4 -12 1 -19z m-1157 -18 c0 -5 -7
-10 -16 -10 -8 0 -12 5 -9 10 3 6 10 10 16 10 5 0 9 -4 9 -10z m-219 -64 c-14
-16 -6 -40 10 -31 5 4 5 -4 0 -19 -9 -22 -8 -24 13 -20 12 2 31 -3 42 -11 10
-8 14 -15 7 -15 -7 0 -28 -14 -47 -31 -41 -35 -53 -80 -35 -124 6 -17 12 -53
13 -82 1 -38 8 -61 26 -85 13 -18 17 -27 8 -20 -11 9 -18 10 -23 2 -4 -6 -3
-10 2 -9 4 1 10 0 13 -1 9 -3 45 -10 88 -16 38 -5 41 -8 30 -23 -14 -18 42 32
75 67 14 15 32 22 60 22 57 0 107 51 108 112 1 38 2 40 8 13 4 -21 13 -31 29
-33 12 -2 22 -9 21 -15 -3 -25 1 -38 11 -32 6 4 7 12 4 18 -4 7 -3 8 1 4 16
-14 14 -37 -3 -37 -10 0 -13 -3 -6 -8 5 -4 10 -18 10 -32 -1 -16 7 -28 22 -35
12 -5 22 -13 22 -17 0 -5 7 -8 15 -8 8 0 15 -5 15 -11 0 -7 -9 -9 -21 -6 -13
3 -19 1 -16 -6 2 -7 13 -13 25 -15 12 -2 22 -8 22 -14 0 -5 -6 -8 -12 -5 -7 2
-21 -3 -32 -12 -18 -15 -18 -15 -12 9 5 17 4 21 -2 11 -7 -9 -12 -10 -16 -2
-4 6 -3 11 2 11 5 0 12 12 15 26 l5 26 -23 -25 c-17 -18 -31 -23 -49 -20 -14
3 -26 9 -26 13 0 4 -7 10 -14 13 -10 4 -13 1 -10 -7 3 -8 1 -17 -5 -21 -6 -3
-14 1 -17 9 -3 9 -10 14 -14 11 -5 -3 -15 1 -23 9 -20 21 -67 32 -67 16 0 -7
7 -10 17 -6 10 4 14 4 11 0 -14 -14 13 -45 33 -39 11 4 19 2 19 -5 0 -6 3 -9
8 -7 4 3 8 -8 9 -25 2 -22 -1 -28 -12 -25 -7 3 -15 1 -17 -5 -2 -6 -10 -4 -20
6 -21 20 -32 21 -24 0 3 -9 2 -12 -5 -8 -7 4 -9 -2 -7 -16 3 -21 38 -39 38
-21 0 4 7 8 15 8 21 0 19 -4 -11 -20 -19 -10 -37 -11 -73 -4 -58 12 -92 4
-132 -31 -56 -50 -55 -129 2 -188 18 -19 42 -53 54 -76 16 -33 32 -49 73 -69
46 -22 51 -27 38 -39 -9 -7 -33 -39 -55 -71 l-39 -58 -20 22 c-12 12 -22 27
-22 32 -1 6 -6 9 -11 8 -17 -5 -108 123 -163 227 -89 170 -130 377 -112 554 7
59 9 66 23 54 15 -12 15 -10 4 10 -16 31 -7 86 31 185 22 58 33 75 42 68 8 -7
20 -6 36 3 30 15 37 12 21 -8z m114 15 c-3 -5 3 -11 14 -13 17 -3 16 -5 -7
-23 -21 -15 -24 -15 -13 -2 11 14 11 18 -4 23 -13 5 -14 9 -3 15 17 11 20 11
13 0z m991 -19 c2 -8 0 -8 -3 -1 -3 7 -8 8 -12 1 -4 -6 -11 -4 -20 5 -11 13
-10 14 10 11 12 -1 24 -9 25 -16z m-169 -9 c0 -7 -6 -13 -14 -13 -7 0 -13 6
-13 13 0 8 6 14 13 14 8 0 14 -6 14 -14z m219 -11 c1 -7 0 -8 -3 -2 -6 14 -33
-7 -33 -26 0 -7 -5 -16 -12 -20 -7 -4 -8 -3 -4 4 4 7 2 12 -3 12 -6 0 -11 7
-11 16 0 8 4 13 9 9 6 -3 16 1 23 9 15 17 31 16 34 -2z m48 -28 c9 -8 16 -19
16 -24 0 -10 31 -18 48 -13 6 3 9 10 6 15 -4 7 -2 8 4 4 8 -5 7 -18 -4 -48 -7
-22 -15 -50 -15 -62 -1 -17 -2 -17 -6 -3 -5 19 -23 24 -23 5 0 -6 -3 -8 -6 -5
-4 4 -1 13 6 22 11 14 7 19 -13 16 -4 -1 -13 11 -19 26 -15 33 -27 43 -44 36
-6 -2 -15 1 -20 8 -4 8 -3 10 4 5 7 -4 12 -1 12 8 0 13 13 23 32 25 4 1 14 -6
22 -15z m-939 -16 c25 -20 27 -25 21 -72 -5 -45 -2 -56 24 -95 17 -24 30 -48
30 -53 0 -5 -11 -20 -25 -34 -21 -21 -31 -24 -61 -18 -32 6 -38 3 -66 -30 -37
-46 -76 -49 -108 -9 -16 21 -20 37 -16 61 3 20 -1 47 -11 67 -22 45 -11 77 32
98 23 11 41 29 50 52 25 58 80 72 130 33z m4918 -452 c51 -58 52 -60 56 -133
l3 -74 -128 -130 c-70 -71 -131 -129 -134 -129 -4 0 -13 19 -20 43 -21 70
-118 288 -157 352 -53 87 -117 169 -200 257 -40 42 -73 80 -73 84 0 5 42 51
93 104 l92 96 208 -206 c115 -113 232 -232 260 -264z m-2887 410 c92 -45 185
-74 315 -100 l107 -21 -143 -147 -143 -146 -128 215 c-100 170 -124 217 -113
224 22 13 30 11 105 -25z m1191 26 c8 -5 0 -26 -29 -71 -22 -36 -82 -133 -133
-217 l-92 -153 -141 148 -141 148 97 16 c117 20 228 55 319 101 69 35 98 42
120 28z m-2643 -27 c-4 -8 -8 -15 -10 -15 -2 0 -4 7 -4 15 0 8 4 15 10 15 5 0
7 -7 4 -15z m196 -14 c-5 -11 -10 -32 -10 -48 0 -20 -3 -24 -9 -14 -5 7 -7 23
-5 35 2 11 2 15 -2 9 -3 -7 -15 -13 -27 -12 -21 0 -21 1 -2 9 19 8 19 9 -3 9
-13 1 -20 5 -17 11 4 6 11 8 16 5 20 -13 48 -13 53 1 3 8 8 14 11 14 3 0 1 -9
-5 -19z m-216 -33 c-3 -4 2 -8 11 -8 9 0 13 5 10 10 -3 6 -3 10 0 10 11 0 31
-24 38 -45 6 -18 5 -18 -12 3 -12 14 -22 18 -26 12 -5 -8 -11 -8 -20 0 -8 7
-18 9 -23 6 -5 -3 -9 0 -9 7 0 7 8 13 18 13 10 0 15 -4 13 -8z m364 -44 c-5
-8 -3 -14 7 -18 8 -3 14 -11 13 -18 -2 -9 9 -13 34 -13 29 0 39 -5 47 -22 13
-29 3 -29 -50 -3 -41 22 -79 71 -79 104 0 19 0 19 19 0 12 -12 15 -23 9 -30z
m-809 -18 c-2 -2 -13 8 -23 22 l-19 27 24 -22 c12 -12 21 -24 18 -27z m364 37
c-7 -2 -19 -2 -25 0 -7 3 -2 5 12 5 14 0 19 -2 13 -5z m-201 -51 c-6 -2 -8
-10 -5 -18 8 -21 -5 -17 -35 11 -15 14 -20 23 -11 20 10 -4 20 -1 24 5 5 8 11
7 22 -2 9 -7 11 -14 5 -16z m98 18 c0 -5 -2 -10 -4 -10 -3 0 -8 5 -11 10 -3 6
-1 10 4 10 6 0 11 -4 11 -10z m135 0 c19 -8 19 -9 -2 -9 -12 -1 -25 4 -28 9
-7 12 2 12 30 0z m341 -121 c22 -20 48 -41 59 -47 11 -6 14 -12 7 -12 -7 0
-34 20 -60 44 -40 38 -52 43 -83 40 -28 -2 -42 3 -59 21 -13 14 -27 22 -33 18
-6 -3 -7 -1 -3 5 4 7 1 12 -8 12 -8 0 -18 4 -21 10 -4 6 4 6 22 -1 19 -7 29
-7 31 0 2 6 8 9 13 5 5 -3 9 0 9 5 0 6 9 11 20 11 11 0 20 6 20 13 0 6 11 -10
24 -38 13 -27 41 -66 62 -86z m-286 101 c0 -5 -5 -10 -11 -10 -5 0 -7 5 -4 10
3 6 8 10 11 10 2 0 4 -4 4 -10z m-110 -10 c0 -5 -7 -10 -15 -10 -8 0 -15 5
-15 10 0 6 7 10 15 10 8 0 15 -4 15 -10z m-136 -9 c3 -5 -1 -11 -9 -15 -9 -3
-15 0 -15 9 0 16 16 20 24 6z m86 -6 c0 -8 5 -15 10 -15 7 0 6 -5 -1 -13 -15
-15 -49 -20 -49 -6 0 5 7 9 16 9 11 0 14 6 9 20 -4 11 -2 20 4 20 6 0 11 -7
11 -15z m1010 -444 l0 -448 -37 -7 c-48 -7 -97 -37 -120 -73 -16 -25 -18 -60
-21 -375 l-3 -348 -269 0 c-147 0 -275 -3 -284 -6 -14 -6 -16 23 -16 272 0
310 11 469 40 589 86 349 304 632 620 804 41 22 78 41 83 41 4 0 7 -202 7
-449z m2420 398 c276 -147 509 -452 590 -772 41 -162 50 -270 50 -592 l0 -285
-290 0 -290 0 0 341 c0 298 -2 345 -17 376 -19 41 -60 69 -115 78 l-38 7 0
449 0 449 27 -11 c15 -6 52 -24 83 -40z m-3200 10 c0 -5 -4 -9 -10 -9 -5 0
-10 7 -10 16 0 8 5 12 10 9 6 -3 10 -10 10 -16z m60 1 c0 -5 -5 -10 -11 -10
-5 0 -7 5 -4 10 3 6 8 10 11 10 2 0 4 -4 4 -10z m-440 -20 c0 -5 -4 -10 -10
-10 -5 0 -10 5 -10 10 0 6 5 10 10 10 6 0 10 -4 10 -10z m1763 -185 c126 -210
126 -210 227 -110 l67 67 31 -54 30 -53 -22 -145 -21 -145 -217 -3 -218 -2 1
322 c0 215 3 318 10 308 5 -8 56 -91 112 -185z m1227 -125 l0 -320 -217 2
-217 3 -23 145 -23 145 27 50 c14 28 27 52 29 54 1 1 31 -27 65 -63 64 -69
101 -84 131 -52 7 8 60 91 117 185 57 94 105 171 107 171 2 0 4 -144 4 -320z
m-2474 291 c-4 -6 -14 -7 -23 -4 -15 6 -14 7 3 13 22 9 29 6 20 -9z m-501 -30
c3 -14 -1 -21 -13 -21 -12 0 -13 3 -5 11 6 6 9 19 6 28 -4 9 -3 13 1 10 4 -4
8 -16 11 -28z m4817 -26 c3 -14 1 -25 -3 -25 -5 0 -9 11 -9 25 0 14 2 25 4 25
2 0 6 -11 8 -25z m-4857 -17 c-2 -28 -20 -26 -18 2 1 30 2 32 11 26 5 -3 8
-15 7 -28z m5035 -73 c-1 -46 -2 -48 -15 -31 -8 11 -15 23 -15 28 0 4 -7 8
-16 8 -11 0 -14 6 -10 18 5 15 4 15 -8 -2 -14 -17 -15 -17 -12 6 1 13 6 29 10
36 5 8 0 12 -13 12 -12 0 -21 5 -21 11 0 5 -5 7 -12 3 -7 -4 -8 -3 -4 4 5 8
24 3 61 -15 l55 -27 0 -51z m-4880 85 c0 -5 -2 -10 -4 -10 -3 0 -8 5 -11 10
-3 6 -1 10 4 10 6 0 11 -4 11 -10z m580 -15 c0 -2 -6 -5 -13 -8 -8 -3 -14 1
-14 8 0 7 6 11 14 8 7 -3 13 -6 13 -8z m4150 -26 c0 -4 -5 -11 -11 -15 -8 -5
-6 -10 5 -16 22 -12 20 -25 -4 -31 -17 -4 -20 0 -20 32 0 27 4 38 15 38 8 0
15 -4 15 -8z m-4810 -39 c0 -5 -4 -10 -10 -10 -5 0 -10 5 -10 10 0 6 5 10 10
10 6 0 10 -4 10 -10z m490 1 c0 -10 39 -9 56 1 5 4 16 3 23 -2 11 -6 5 -19
-24 -54 -29 -34 -42 -43 -51 -35 -7 6 -19 7 -25 3 -8 -5 -9 -3 -3 7 12 20 14
38 4 44 -5 3 -7 -4 -5 -15 2 -11 0 -20 -6 -20 -5 0 -9 7 -9 15 0 8 -4 15 -10
15 -5 0 -7 -8 -3 -17 5 -15 3 -15 -11 2 -10 11 -14 14 -10 6 5 -9 -2 -8 -18 5
-23 17 -24 20 -9 31 23 18 36 16 21 -3 -11 -12 -11 -15 1 -12 8 2 20 10 27 18
10 11 12 12 6 1 -5 -11 -3 -13 10 -8 10 4 20 7 22 7 3 0 2 5 -1 10 -3 6 -1 10
4 10 6 0 11 -4 11 -9z m4730 -42 c-30 -27 -77 -68 -104 -91 l-49 -43 6 70 c4
39 7 80 7 92 0 21 4 22 98 22 l97 -1 -55 -49z m-5181 -28 c-10 -11 -49 -9 -43
1 4 7 2 8 -5 4 -6 -4 -9 -12 -6 -17 3 -5 -1 -6 -9 -3 -9 3 -16 11 -16 16 0 6
-6 5 -15 -2 -8 -7 -15 -23 -15 -36 0 -17 -4 -22 -15 -18 -11 5 -13 2 -9 -10 5
-12 2 -15 -10 -10 -9 3 -14 10 -11 14 3 4 -1 8 -8 7 -31 -1 -48 4 -43 12 4 5
2 11 -3 13 -5 1 -2 9 6 17 12 11 15 10 20 -9 4 -16 8 -18 14 -8 7 10 9 10 9 0
0 -10 3 -10 14 0 7 7 11 20 8 28 -4 12 -2 13 8 3 10 -10 17 -10 27 -1 8 6 29
13 46 15 18 2 34 8 36 15 2 6 8 3 14 -8 6 -10 9 -21 6 -23z m285 15 c-6 -16
-44 -23 -44 -8 0 7 42 30 48 26 1 0 0 -9 -4 -18z m-74 -1 c-7 -8 -17 -12 -22
-9 -6 4 -5 10 3 15 22 14 33 10 19 -6z m-44 -32 c-1 -1 -12 0 -25 4 -15 4 -19
8 -10 13 10 7 42 -10 35 -17z m-96 2 c5 3 7 -6 5 -20 -2 -22 2 -25 27 -25 23
0 29 -4 24 -16 -5 -12 0 -11 22 4 15 11 35 18 45 16 27 -4 34 -14 11 -15 -18
0 -18 -1 1 -8 11 -5 29 -4 40 1 16 7 15 5 -3 -9 -26 -21 -21 -29 31 -51 22
-10 27 -9 27 3 0 9 -6 12 -17 9 -17 -5 -17 -5 0 6 13 8 22 8 39 -4 19 -13 19
-16 5 -16 -9 0 -17 -5 -17 -11 0 -5 4 -8 8 -5 5 3 20 2 34 -2 l25 -7 -34 -70
c-18 -38 -33 -64 -33 -58 0 6 -10 9 -22 7 l-23 -5 22 10 23 10 -23 23 c-13 14
-25 19 -29 13 -5 -6 -8 -3 -8 8 0 10 -8 17 -20 17 -10 0 -24 9 -30 20 -14 27
-78 53 -113 46 -17 -4 -26 -2 -22 4 6 9 1 11 -37 14 -7 1 -12 -7 -10 -18 2
-11 -1 -15 -7 -11 -6 3 -11 1 -11 -4 0 -6 -7 -11 -15 -11 -8 0 -15 -4 -15 -8
0 -12 -40 -9 -41 3 -1 5 -5 -3 -9 -20 l-8 -30 -1 35 c-1 19 -8 46 -16 60 -19
33 -19 49 -1 24 12 -15 17 -16 27 -7 10 10 16 10 28 0 12 -10 14 -9 8 6 -3 9
-2 17 3 17 6 0 10 -4 10 -10 0 -5 13 -1 29 8 36 20 34 26 -3 13 -23 -9 -26 -8
-26 10 0 13 -8 23 -21 26 -20 5 -20 6 3 18 13 6 27 9 33 6 5 -3 16 -6 25 -7 8
-1 26 -5 40 -8 22 -5 23 -4 8 8 -10 7 -14 16 -11 20 4 4 9 2 11 -3 2 -6 7 -9
12 -6z m250 5 c0 -5 -4 -10 -10 -10 -5 0 -10 5 -10 10 0 6 5 10 10 10 6 0 10
-4 10 -10z m-117 -13 c7 4 6 -1 -2 -10 -7 -9 -17 -15 -21 -12 -5 3 -11 1 -15
-5 -3 -5 -13 -10 -21 -10 -8 0 -12 5 -9 10 3 6 -2 10 -11 10 -14 0 -15 3 -6
12 9 9 15 8 26 -7 13 -18 14 -18 27 3 8 12 15 18 17 12 2 -6 9 -7 15 -3z
m4704 -49 c-2 -13 -4 -3 -4 22 0 25 2 35 4 23 2 -13 2 -33 0 -45z m-5091 -43
c59 -40 52 -136 -11 -178 -19 -12 -35 -27 -35 -34 0 -6 -12 -25 -26 -42 -20
-25 -34 -31 -64 -31 -45 0 -85 28 -95 67 -3 15 -24 47 -46 70 -45 49 -48 71
-16 108 24 28 36 30 114 20 44 -7 57 -4 85 14 39 24 66 26 94 6z m5083 -37
c-1 -41 -26 -209 -28 -187 0 9 -9 20 -18 23 -13 5 -14 9 -5 15 8 5 -1 12 -27
20 -22 6 -42 15 -44 19 -3 4 -8 36 -11 72 -7 58 -6 63 7 46 8 -11 13 -33 10
-48 -2 -17 0 -28 7 -28 6 0 9 4 6 9 -8 12 4 42 13 37 4 -3 5 -21 3 -41 -3 -29
-7 -33 -18 -24 -11 9 -14 8 -14 -4 0 -14 39 -31 49 -22 2 3 0 5 -6 5 -15 0 -5
38 18 71 10 14 15 30 11 34 -4 5 -2 5 4 2 7 -4 14 2 17 13 8 32 27 23 26 -12z
m-4949 -108 c0 -12 2 -12 9 -1 6 9 11 10 15 2 4 -6 22 -11 39 -12 25 0 17 -4
-33 -18 -36 -10 -85 -28 -110 -41 l-44 -23 31 36 c17 20 34 45 38 56 8 25 55
26 55 1z m198 -7 c-16 -2 -40 -2 -55 0 -16 2 -3 4 27 4 30 0 43 -2 28 -4z
m4719 -140 c-3 -10 -5 -4 -5 12 0 17 2 24 5 18 2 -7 2 -21 0 -30z m-4660 6
c35 -6 63 -15 63 -19 0 -5 -5 -21 -11 -37 -6 -15 -20 -71 -31 -123 -18 -83
-21 -144 -25 -469 l-5 -374 -92 6 c-240 14 -427 169 -481 399 -55 233 57 463
276 568 115 55 197 68 306 49z m4613 -49 c0 -5 7 -10 15 -10 8 0 15 5 15 12 0
6 3 9 6 5 10 -9 -17 -147 -28 -147 -6 0 -8 12 -4 30 3 17 2 29 -3 26 -5 -3
-11 11 -15 32 -8 51 -8 62 4 62 6 0 10 -4 10 -10z"/>
<path d="M6185 4757 c-117 -39 -190 -120 -161 -178 19 -40 63 -38 103 6 79 87
204 86 279 -1 48 -56 114 -46 114 17 0 38 -59 103 -122 135 -60 30 -156 40
-213 21z"/>
<path d="M7255 4757 c-111 -37 -194 -132 -160 -183 24 -36 64 -32 106 12 82
87 201 86 279 0 36 -39 69 -46 94 -20 43 43 -12 134 -106 174 -64 27 -158 35
-213 17z"/>
<path d="M6210 4520 c-50 -54 -53 -163 -6 -213 33 -35 70 -43 101 -23 42 28
57 61 57 126 0 121 -85 182 -152 110z"/>
<path d="M7304 4539 c-36 -18 -59 -68 -58 -132 1 -63 20 -100 66 -126 62 -35
137 53 124 146 -13 94 -69 142 -132 112z"/>
<path d="M4765 3615 c-19 -14 -18 -15 9 -5 30 11 62 -3 50 -21 -3 -5 3 -9 13
-9 15 0 20 -9 22 -37 5 -74 4 -73 19 -61 10 9 11 13 0 19 -7 5 -8 9 -2 9 5 0
15 -5 21 -11 8 -8 13 -7 18 2 6 8 4 10 -5 4 -9 -6 -11 -4 -6 4 5 7 14 10 22 7
8 -3 14 1 14 10 0 8 -4 12 -10 9 -5 -3 -10 1 -10 9 0 9 -8 16 -17 16 -14 0
-15 -2 -5 -9 11 -6 9 -9 -6 -13 -15 -4 -19 -1 -18 16 1 11 -6 27 -16 34 -10 7
-18 18 -18 24 0 6 8 3 19 -6 16 -14 19 -15 24 -2 7 17 -4 22 -58 25 -24 1 -48
-4 -60 -14z"/>
<path d="M4920 3610 c0 -5 -6 -10 -13 -10 -8 0 -14 -7 -14 -15 0 -26 32 -17
33 10 1 14 0 25 -2 25 -2 0 -4 -4 -4 -10z"/>
<path d="M4577 3549 c7 -9 10 -19 6 -23 -4 -4 1 -4 10 0 10 3 17 7 15 8 -2 1
-12 8 -23 16 -18 14 -19 13 -8 -1z"/>
<path d="M4786 3543 c-6 -14 -5 -15 5 -6 7 7 10 15 7 18 -3 3 -9 -2 -12 -12z"/>
<path d="M4515 3530 c3 -5 8 -10 11 -10 2 0 4 5 4 10 0 6 -5 10 -11 10 -5 0
-7 -4 -4 -10z"/>
<path d="M4465 3520 c-3 -5 -4 -14 -1 -19 4 -5 0 -12 -6 -14 -7 -3 -3 -6 8 -6
17 -1 20 4 16 24 -5 27 -8 30 -17 15z"/>
<path d="M4520 3499 c0 -5 5 -7 10 -4 6 3 10 8 10 11 0 2 -4 4 -10 4 -5 0 -10
-5 -10 -11z"/>
<path d="M4850 3180 c0 -5 5 -10 10 -10 6 0 10 5 10 10 0 6 -4 10 -10 10 -5 0
-10 -4 -10 -10z"/>
<path d="M5340 3356 c0 -2 7 -6 15 -10 8 -3 15 -1 15 4 0 6 -7 10 -15 10 -8 0
-15 -2 -15 -4z"/>
<path d="M4066 3193 c9 -36 10 -38 16 -16 3 10 -1 24 -9 32 -12 10 -13 8 -7
-16z"/>
<path d="M4590 3085 c-6 -8 -9 -19 -5 -26 4 -6 2 -15 -5 -19 -11 -7 -10 -11 3
-24 11 -12 17 -13 20 -3 3 6 6 0 6 -15 1 -31 17 -39 49 -25 24 11 28 22 12 32
-17 10 -2 24 20 18 27 -7 25 9 -2 34 -35 31 -58 36 -58 13 0 -11 -5 -20 -11
-20 -6 0 -9 9 -6 20 6 25 -7 34 -23 15z m58 -67 c-6 -18 -28 -21 -28 -4 0 9 7
16 16 16 9 0 14 -5 12 -12z"/>
<path d="M4398 3073 c7 -3 16 -2 19 1 4 3 -2 6 -13 5 -11 0 -14 -3 -6 -6z"/>
<path d="M4470 3070 c-9 -6 -10 -10 -3 -10 6 0 15 5 18 10 8 12 4 12 -15 0z"/>
<path d="M4385 3040 c3 -5 8 -10 11 -10 2 0 4 5 4 10 0 6 -5 10 -11 10 -5 0
-7 -4 -4 -10z"/>
<path d="M4550 2998 c0 -9 -6 -19 -12 -21 -10 -4 -10 -6 0 -6 14 -1 28 26 18
36 -3 4 -6 -1 -6 -9z"/>
<path d="M4690 2990 c0 -5 4 -10 9 -10 6 0 13 5 16 10 3 6 -1 10 -9 10 -9 0
-16 -4 -16 -10z"/>
<path d="M4486 2982 c-3 -5 1 -9 9 -9 8 0 12 4 9 9 -3 4 -7 8 -9 8 -2 0 -6 -4
-9 -8z"/>
<path d="M4563 2951 c0 -11 5 -17 10 -14 4 2 16 -1 25 -9 15 -12 16 -11 3 5
-7 9 -10 17 -5 17 10 0 -17 20 -28 20 -4 0 -6 -9 -5 -19z"/>
<path d="M4488 2933 c7 -3 16 -2 19 1 4 3 -2 6 -13 5 -11 0 -14 -3 -6 -6z"/>
<path d="M4195 2630 c-4 -6 -13 -9 -20 -6 -7 2 -16 -2 -19 -10 -3 -9 -2 -12 5
-9 5 4 17 1 26 -7 14 -11 16 -11 10 4 -3 9 -1 19 6 21 7 2 9 7 6 11 -4 4 -10
2 -14 -4z"/>
<path d="M4070 2598 c0 -4 4 -8 9 -8 6 0 12 4 15 8 3 5 -1 9 -9 9 -8 0 -15 -4
-15 -9z"/>
<path d="M4550 2495 c9 -11 17 -12 31 -4 26 13 24 16 -12 17 -25 1 -28 -2 -19
-13z"/>
<path d="M4654 2463 c10 -11 37 -12 30 -2 -3 5 -12 9 -21 9 -9 0 -13 -3 -9 -7z"/>
<path d="M4720 2440 c0 -5 7 -10 15 -10 8 0 15 5 15 10 0 6 -7 10 -15 10 -8 0
-15 -4 -15 -10z"/>
<path d="M4670 2420 c0 -5 7 -7 15 -4 8 4 15 8 15 10 0 2 -7 4 -15 4 -8 0 -15
-4 -15 -10z"/>
</g>
</svg>
