<?xml version="1.0" standalone="no"?>
<!DOCTYPE svg PUBLIC "-//W3C//DTD SVG 20010904//EN"
 "http://www.w3.org/TR/2001/REC-SVG-20010904/DTD/svg10.dtd">
<svg version="1.0" xmlns="http://www.w3.org/2000/svg"
 width="1408.000000pt" height="768.000000pt" viewBox="0 0 1408.000000 768.000000"
 preserveAspectRatio="xMidYMid meet">

<g transform="translate(0.000000,768.000000) scale(0.100000,-0.100000)"
fill="#000000" stroke="none">
<path d="M6745 7363 c-164 -13 -340 -52 -495 -110 -530 -196 -952 -682 -1075
-1238 -8 -38 -17 -80 -20 -92 -5 -21 -6 -21 -103 19 -120 50 -169 53 -235 15
-30 -18 -56 -44 -74 -75 -26 -43 -28 -58 -32 -164 -3 -114 -2 -117 23 -142 38
-39 96 -36 130 5 24 28 26 38 26 125 0 83 2 94 18 94 9 -1 64 -20 122 -44
l105 -44 3 -846 2 -846 -278 0 c-314 0 -350 -6 -419 -65 -23 -20 -54 -61 -69
-93 -24 -49 -28 -70 -29 -147 0 -106 19 -156 83 -224 l41 -43 -42 -45 c-193
-206 -302 -466 -314 -749 -9 -210 22 -360 112 -550 41 -84 140 -232 178 -263
15 -12 17 -36 17 -182 0 -139 3 -170 16 -183 13 -14 53 -16 287 -16 221 0 286
-3 345 -17 l72 -17 0 -112 c0 -129 14 -210 64 -379 85 -281 211 -447 419 -550
200 -99 456 -102 643 -7 225 114 372 324 404 576 5 44 10 152 10 239 0 176 9
209 70 260 71 60 167 60 248 0 62 -46 69 -75 75 -303 5 -230 19 -311 72 -425
88 -191 251 -330 459 -389 70 -21 110 -26 196 -26 210 0 363 64 515 215 109
108 164 205 219 389 52 168 66 272 66 475 0 144 2 172 14 168 84 -32 271 -33
360 -1 130 46 360 242 463 394 248 369 280 839 83 1232 -165 329 -465 564
-821 641 l-99 22 0 921 0 921 28 13 c103 48 238 100 249 96 9 -4 13 -30 13
-91 0 -98 14 -136 58 -154 37 -16 77 -5 102 26 17 22 20 41 20 132 -1 145 -29
210 -112 252 -54 28 -113 24 -199 -12 -41 -17 -95 -39 -120 -49 l-46 -18 -22
106 c-141 680 -664 1204 -1339 1342 -157 32 -348 45 -487 33z m1638 -1345 c16
-69 38 -210 34 -214 -7 -6 -132 -54 -141 -54 -6 0 -22 19 -36 41 -32 52 -132
144 -203 187 -96 58 -187 83 -317 89 -140 6 -217 -9 -339 -68 -68 -33 -101
-58 -171 -128 -82 -82 -98 -106 -167 -249 0 -2 -25 4 -54 12 -66 20 -122 20
-185 1 -63 -19 -58 -20 -72 19 -20 54 -105 176 -158 228 -124 118 -268 178
-449 185 -203 9 -358 -51 -501 -192 -44 -44 -87 -91 -96 -105 l-15 -24 -79 34
c-43 18 -83 37 -88 42 -26 22 89 167 172 215 92 54 25 52 1488 52 l1360 1 17
-72z m-2158 -143 c89 -24 167 -70 235 -141 190 -198 186 -510 -10 -704 -107
-107 -239 -158 -380 -147 -370 29 -579 407 -414 745 53 109 198 222 320 251
62 14 185 12 249 -4z m1588 0 c141 -37 253 -129 317 -259 66 -135 73 -253 25
-397 -66 -197 -262 -339 -470 -339 -203 0 -403 140 -470 330 -100 282 57 587
342 665 66 18 187 18 256 0z m-2378 -324 c-26 -103 -21 -267 11 -365 72 -220
233 -382 449 -453 69 -23 97 -26 205 -27 111 0 134 3 205 28 107 37 174 77
252 150 142 132 223 309 223 485 0 58 1 61 33 77 39 21 111 24 153 6 30 -13
31 -15 37 -96 12 -172 72 -315 183 -435 200 -216 506 -279 772 -160 184 82
323 242 383 439 25 81 32 227 16 325 l-8 51 36 17 36 17 -3 -442 -4 -443 -27
-75 c-53 -147 -156 -263 -292 -330 -128 -63 -53 -60 -1480 -60 l-1300 0 3 684
2 684 61 -26 c56 -24 60 -28 54 -51z m2985 -1673 l0 -463 -525 -4 c-524 -3
-525 -3 -525 17 0 44 -23 52 -156 52 -104 0 -124 2 -124 15 0 9 -12 20 -27 26
-16 6 -36 18 -47 27 -52 48 -80 172 -56 256 13 48 63 116 85 116 8 0 22 11 31
25 15 23 15 27 0 50 l-16 25 -870 0 -870 0 0 30 0 30 1300 0 c1149 0 1310 2
1378 16 135 28 257 91 357 186 33 32 61 57 63 58 1 0 2 -208 2 -462z m-1530
40 c0 -2 -11 -30 -24 -62 l-24 -59 -1026 1 c-1019 2 -1026 2 -1026 -18 0 -20
8 -20 1025 -20 l1025 0 0 -39 c0 -22 3 -46 6 -55 6 -14 -91 -16 -1022 -18
-971 -3 -1029 -4 -1032 -20 -3 -17 51 -18 1030 -18 l1034 0 22 -45 22 -45
-1070 0 -1069 0 -37 32 c-95 83 -99 245 -10 328 21 19 43 26 89 31 58 6 2087
12 2087 7z m-2309 -46 c-49 -96 -47 -218 4 -309 l24 -43 -23 0 c-37 0 -89 41
-114 90 -32 63 -29 179 7 232 29 41 66 67 99 68 l22 0 -19 -38z m4147 -243
c151 -40 293 -123 424 -247 281 -269 385 -682 266 -1062 -24 -77 -88 -220 -98
-220 -4 0 -11 17 -15 38 -10 54 -78 194 -129 265 -52 74 -184 203 -244 241
-24 15 -41 33 -38 39 65 147 90 250 84 338 -6 87 -20 93 -52 22 -42 -92 -112
-197 -218 -330 -54 -68 -100 -123 -103 -123 -3 0 -5 241 -5 535 l0 535 28 -6
c15 -3 60 -14 100 -25z m-2236 -287 c-9 -63 -9 -184 1 -254 l8 -58 -49 0 -50
0 -10 48 c-19 87 -22 148 -11 228 6 43 12 81 14 84 2 3 26 3 54 2 l50 -4 -7
-46z m203 41 c-54 -124 -58 -214 -12 -302 l26 -52 -77 3 -77 3 -13 60 c-13 60
-11 243 3 277 5 12 21 18 58 21 29 2 63 4 76 5 19 2 22 -1 16 -15z m-357 -35
c-11 -47 -6 -272 7 -301 7 -17 -25 -17 -668 -15 l-675 3 -28 25 c-63 59 -82
167 -43 248 43 87 -5 82 750 82 l667 0 -10 -42z m850 25 c-2 -5 -10 -25 -18
-45 l-14 -38 -164 0 c-146 0 -163 -2 -158 -16 3 -9 6 -18 6 -20 0 -2 70 -4
155 -4 l155 0 0 -50 0 -50 -160 0 c-136 0 -160 -2 -160 -15 0 -13 25 -15 164
-15 l164 0 20 -40 19 -40 -151 -2 c-216 -3 -206 -4 -243 35 -67 74 -70 188 -6
275 l24 32 185 0 c102 0 184 -3 182 -7z m1232 -566 l0 -424 -23 -22 c-13 -12
-34 -44 -47 -71 l-23 -50 -819 0 -818 0 0 85 0 85 408 0 c304 0 411 3 420 12
7 7 12 25 12 40 0 22 -9 33 -40 53 -90 57 -120 201 -63 313 17 35 39 62 57 72
42 22 52 43 38 74 -11 24 -16 26 -81 26 -66 0 -72 2 -110 36 -41 37 -65 88
-75 157 l-5 37 585 0 584 0 0 -423z m-3850 143 c0 -140 -14 -245 -31 -234 -5
3 -9 88 -9 190 0 177 1 184 20 184 19 0 20 -7 20 -140z m275 107 c11 -17 21
-35 23 -39 2 -5 -14 -8 -36 -8 -54 0 -127 -24 -167 -55 l-35 -26 0 80 0 81 98
0 97 0 20 -33z m-53 -204 c-23 -49 -27 -72 -27 -143 0 -71 4 -94 27 -142 29
-62 26 -66 -26 -44 -58 24 -106 108 -106 184 0 103 60 180 157 202 1 0 -10
-26 -25 -57z m1231 -2 c-46 -92 -40 -228 13 -306 l24 -35 -543 2 -542 3 -33
23 c-50 37 -76 95 -76 172 0 75 17 113 69 159 l36 31 538 0 538 0 -24 -49z
m1297 7 l-19 -43 -538 -7 c-296 -4 -548 -5 -560 -3 -18 4 -23 1 -23 -15 0 -20
5 -20 555 -20 l555 0 0 -55 0 -55 -555 0 c-548 0 -555 0 -555 -20 0 -20 7 -20
559 -20 l558 0 19 -47 c11 -27 20 -50 21 -53 2 -3 -252 -5 -565 -5 l-567 0
-33 24 c-48 37 -77 103 -76 176 1 67 21 114 67 157 l29 28 574 0 573 0 -19
-42z m1523 -377 c189 -141 291 -307 312 -507 7 -73 4 -79 -110 -164 -107 -80
-168 -103 -265 -98 -90 4 -151 31 -214 93 -72 72 -91 123 -91 240 0 130 13
154 160 306 62 64 121 128 130 143 10 14 19 26 22 26 2 0 27 -17 56 -39z
m-2843 -491 l0 -420 -150 0 -150 0 41 52 c106 134 142 294 104 457 -27 115
-107 236 -199 303 l-39 28 196 0 197 0 0 -420z m160 0 l0 -420 -55 0 -55 0 0
420 0 420 55 0 55 0 0 -420z m180 145 c0 -255 1 -275 18 -275 16 0 17 19 17
273 l0 272 43 3 42 3 0 -325 0 -326 -45 0 c-25 0 -67 -9 -95 -19 l-50 -19 0
344 0 344 35 0 35 0 0 -275z m240 -71 l0 -345 -22 15 c-12 9 -30 16 -40 16
-12 0 -18 8 -18 25 0 14 0 124 0 245 0 121 0 258 0 305 l0 85 40 0 40 0 0
-346z m-1125 223 c84 -40 154 -108 193 -186 23 -48 27 -68 27 -146 0 -77 -4
-98 -27 -147 -67 -144 -242 -236 -399 -211 l-54 8 -18 65 c-15 53 -17 91 -14
205 5 160 31 268 94 388 l37 69 45 -6 c25 -3 78 -21 116 -39z m-784 -679 l64
-38 -103 0 -102 0 0 71 0 71 39 -34 c21 -18 67 -50 102 -70z m1806 -715 c-12
-70 -76 -182 -142 -248 -111 -111 -284 -176 -425 -160 -170 19 -310 98 -407
228 -45 61 -103 173 -103 201 0 11 85 14 541 15 l542 2 -6 -38z m1869 12 c-13
-51 -54 -132 -99 -192 -141 -190 -384 -273 -602 -205 -116 35 -226 117 -298
222 -36 52 -76 145 -77 178 l0 22 541 0 541 0 -6 -25z"/>
<path d="M6632 4800 c-13 -6 -29 -26 -38 -45 -12 -30 -12 -40 -1 -68 18 -42
77 -94 147 -126 47 -22 69 -26 150 -26 87 0 101 3 160 32 139 68 185 150 121
214 -41 41 -89 40 -128 -2 -40 -43 -95 -69 -147 -69 -60 0 -92 13 -143 60 -44
41 -74 48 -121 30z"/>
<path d="M5144 3226 c-3 -8 -3 -20 1 -26 4 -7 176 -10 531 -10 l525 0 -3 23
-3 22 -523 3 c-451 2 -523 0 -528 -12z"/>
<path d="M5313 2802 c-314 -2 -363 -4 -363 -17 0 -13 60 -15 461 -15 433 0
460 1 457 18 -4 20 30 19 -555 14z"/>
<path d="M4957 2653 c-4 -3 -7 -12 -7 -20 0 -11 83 -13 461 -13 433 0 460 1
457 18 -3 16 -34 17 -454 20 -248 1 -454 -1 -457 -5z"/>
</g>
</svg>
