<?xml version="1.0" standalone="no"?>
<!DOCTYPE svg PUBLIC "-//W3C//DTD SVG 20010904//EN"
 "http://www.w3.org/TR/2001/REC-SVG-20010904/DTD/svg10.dtd">
<svg version="1.0" xmlns="http://www.w3.org/2000/svg"
 width="626.000000pt" height="667.000000pt" viewBox="0 0 626.000000 667.000000"
 preserveAspectRatio="xMidYMid meet">

<g transform="translate(0.000000,667.000000) scale(0.100000,-0.100000)"
fill="#000000" stroke="none">
<path d="M2915 6069 c-178 -26 -390 -108 -540 -209 -68 -46 -86 -67 -101 -120
-4 -14 -35 -57 -69 -96 -124 -142 -208 -310 -244 -491 -12 -56 -21 -112 -21
-126 0 -18 -12 -35 -40 -57 -57 -45 -109 -154 -117 -245 -12 -144 51 -281 157
-342 30 -17 73 -49 96 -71 38 -38 54 -46 108 -54 12 -2 25 -22 40 -64 28 -75
77 -165 122 -221 l34 -42 -47 -6 c-191 -26 -279 -80 -722 -445 -90 -74 -198
-163 -241 -196 -98 -79 -145 -134 -170 -202 -30 -80 -35 -156 -16 -232 23 -88
51 -130 158 -231 50 -47 88 -90 85 -96 -3 -5 -44 -33 -89 -61 -112 -69 -140
-99 -145 -159 -4 -47 -2 -52 141 -278 80 -126 161 -247 179 -267 30 -34 38
-38 83 -38 48 0 63 8 269 140 173 111 223 139 239 133 12 -5 59 -8 106 -8 63
0 95 5 123 19 25 12 42 15 48 9 6 -6 -3 -108 -27 -289 -19 -153 -50 -395 -68
-537 -28 -216 -36 -261 -53 -280 -35 -37 -55 -88 -60 -148 l-6 -58 -101 -75
c-203 -150 -257 -220 -264 -347 -4 -70 -2 -82 22 -123 17 -30 39 -51 69 -65
42 -20 57 -21 488 -21 409 0 447 2 484 19 55 25 92 71 100 126 10 64 0 415
-12 445 -8 19 0 94 33 315 24 160 48 322 53 360 6 39 23 152 37 253 l27 182
54 0 c29 0 53 -3 53 -7 0 -5 12 -82 25 -173 14 -91 34 -228 45 -305 10 -77 35
-243 54 -369 26 -172 32 -236 24 -255 -5 -14 -11 -125 -11 -247 l-2 -220 28
-43 c54 -81 49 -81 556 -81 433 0 446 1 489 21 26 13 54 38 70 61 53 81 25
229 -62 325 -19 22 -92 82 -161 133 -124 93 -125 94 -125 134 0 61 -16 106
-53 152 -31 39 -34 50 -45 155 -6 63 -37 305 -67 538 -31 233 -54 425 -53 426
2 1 25 16 51 35 56 37 102 103 113 163 5 23 9 114 9 202 l0 160 48 3 c30 2 55
-2 64 -10 9 -7 74 -77 145 -155 199 -220 305 -282 500 -291 89 -4 117 -1 175
16 107 33 215 110 264 189 27 43 104 89 162 97 87 11 152 57 182 129 14 33 19
37 53 37 47 0 96 30 117 70 17 32 125 945 125 1052 0 44 -4 54 -34 84 l-34 34
-664 0 c-639 0 -664 -1 -695 -20 -17 -10 -37 -28 -43 -39 -6 -11 -19 -88 -29
-171 -10 -83 -21 -153 -23 -156 -3 -2 -13 8 -23 23 -77 120 -216 301 -263 343
-31 28 -86 65 -122 82 -36 17 -66 32 -68 33 -2 2 19 32 47 68 52 70 104 170
116 225 6 28 11 33 48 39 30 4 52 18 83 48 23 24 63 53 89 66 61 31 118 96
147 168 17 44 22 76 22 151 0 123 -24 187 -100 266 -46 48 -54 62 -54 94 0 52
-42 212 -79 301 -44 105 -122 229 -192 303 -32 35 -59 72 -59 82 0 73 -169
187 -399 271 -178 64 -450 90 -646 62z m320 -59 c214 -24 424 -98 577 -201 90
-61 105 -101 51 -136 -22 -15 -26 -14 -76 18 -338 215 -687 267 -1026 152
-104 -35 -235 -97 -280 -132 -61 -49 -86 -57 -116 -37 -17 11 -25 25 -25 45 0
31 11 43 90 96 162 109 342 168 605 199 61 7 112 6 200 -4z m434 -325 c40 -25
84 -54 98 -65 14 -11 36 -20 48 -20 26 0 107 -95 168 -195 41 -69 92 -192 102
-247 7 -35 5 -38 -16 -38 -13 0 -33 -3 -44 -6 -18 -5 -25 6 -54 80 -67 172
-179 336 -314 461 -45 41 -77 75 -71 75 5 0 43 -20 83 -45z m-1092 -26 c-126
-114 -240 -279 -313 -457 l-39 -92 -35 6 c-19 4 -38 10 -43 13 -10 10 28 132
65 206 63 126 173 265 209 265 9 0 41 17 70 37 67 46 131 83 144 83 5 0 -21
-27 -58 -61z m-262 -29 c17 -19 17 -21 -15 -57 -89 -101 -173 -263 -208 -401
-11 -42 -27 -76 -43 -93 -14 -14 -28 -32 -31 -40 -3 -8 -9 -11 -14 -6 -12 11
20 160 56 259 18 49 56 126 85 173 53 84 132 185 145 185 4 0 15 -9 25 -20z
m1663 -14 c99 -113 184 -269 222 -409 24 -88 40 -177 31 -177 -20 1 -75 88
-86 138 -29 122 -99 261 -196 387 -44 58 -46 63 -31 79 22 22 26 21 60 -18z
m-1766 -587 c26 -30 29 -82 26 -387 l-3 -284 -24 -19 c-33 -27 -86 -25 -116 5
l-24 24 -1 314 c0 302 0 316 20 341 32 41 89 43 122 6z m1928 -1 c19 -21 20
-34 20 -340 l0 -319 -25 -24 c-29 -30 -73 -32 -107 -5 l-25 19 -5 253 c-6 316
0 404 26 424 31 22 92 18 116 -8z m-2140 -338 c0 -148 -4 -270 -9 -270 -22 0
-100 84 -122 132 -36 80 -34 202 4 280 26 53 95 128 117 128 6 0 10 -97 10
-270z m2294 230 c66 -61 91 -125 91 -235 0 -79 -4 -97 -27 -141 -25 -47 -99
-124 -120 -124 -4 0 -8 122 -8 270 0 177 4 270 10 270 6 0 30 -18 54 -40z
m-1459 -120 c121 -57 145 -74 145 -101 0 -26 -35 -43 -59 -29 -35 18 -41 12
-41 -45 0 -81 -46 -120 -92 -78 -15 13 -18 32 -18 104 l0 89 -62 31 c-82 41
-95 61 -62 93 18 18 11 20 189 -64z m760 51 c10 -31 -3 -46 -69 -78 l-64 -32
5 -83 c5 -75 3 -85 -16 -105 -25 -26 -49 -29 -76 -9 -13 10 -20 30 -23 75 -5
63 -9 68 -43 51 -27 -15 -61 5 -57 33 2 17 34 38 143 94 145 75 189 87 200 54z
m-353 -468 c27 -24 23 -68 -11 -105 -29 -32 -31 -33 -116 -33 -85 0 -87 1
-116 33 -33 36 -37 76 -12 104 23 26 227 27 255 1z m2573 -637 c15 -22 15 -36
1 -148 -21 -165 -62 -525 -78 -670 l-12 -118 -142 0 c-137 0 -144 1 -159 23
l-15 22 112 6 c62 4 120 7 129 8 9 0 20 9 23 18 4 10 23 152 42 318 61 535 58
488 39 501 -12 9 -163 11 -608 10 -326 -1 -597 -5 -604 -9 -11 -7 -26 -86 -37
-192 -16 -150 -39 -332 -52 -420 -8 -55 -14 -129 -12 -165 l3 -65 224 -3 224
-2 -23 -25 -23 -25 -240 0 -240 0 6 63 c16 175 59 546 67 577 6 19 10 60 10
90 1 88 25 202 46 217 14 10 143 13 661 13 l643 0 15 -24z m-148 -118 c10 -12
1 -143 -11 -175 -6 -16 -166 -19 -182 -3 -13 13 2 158 17 177 15 18 162 18
176 1z m-935 -45 c13 -11 18 -30 18 -65 0 -42 -5 -54 -30 -79 -64 -64 -126 10
-90 108 20 52 66 69 102 36z m128 -20 c0 -81 -12 -143 -28 -143 -12 0 -14 11
-8 64 5 52 4 65 -9 70 -22 8 -18 25 8 36 35 14 37 12 37 -27z m120 8 c0 -15
-3 -56 -6 -90 -6 -50 -10 -61 -23 -58 -9 2 -15 7 -15 13 15 114 15 123 -8 126
-22 3 -21 4 7 20 41 23 45 22 45 -11z m-1080 -188 c21 -15 22 -21 17 -81 -4
-36 -12 -69 -19 -74 -22 -13 -442 -10 -456 4 -7 7 -12 40 -12 80 0 53 4 69 18
77 10 7 98 11 223 10 171 0 210 -3 229 -16z m1080 -58 c0 -13 -27 -15 -184
-15 -168 0 -208 5 -189 24 3 3 89 6 190 6 156 0 183 -2 183 -15z m120 0 c0
-10 -10 -15 -30 -15 -20 0 -30 5 -30 15 0 10 10 15 30 15 20 0 30 -5 30 -15z
m223 0 c-2 -5 -39 -11 -83 -13 -67 -2 -80 0 -80 13 0 13 13 15 83 13 48 -2 81
-7 80 -13z m-2622 -65 c10 -6 19 -15 19 -21 0 -5 9 -20 21 -32 11 -12 46 -62
76 -112 31 -49 87 -136 124 -193 37 -56 71 -112 74 -123 13 -39 -4 -66 -62
-105 -32 -20 -102 -67 -157 -103 -54 -35 -111 -72 -126 -80 -16 -9 -59 -37
-98 -63 -38 -27 -74 -48 -80 -48 -15 0 -24 31 -12 45 15 18 132 88 147 88 7 0
10 4 7 9 -5 7 10 12 29 9 4 0 7 3 7 8 0 9 113 91 127 91 18 1 158 108 161 123
5 23 -249 434 -279 453 -11 6 -67 -28 -370 -226 -123 -80 -228 -148 -234 -152
-7 -4 -20 1 -29 11 -17 18 -13 22 96 93 62 41 165 108 228 148 63 40 155 100
203 132 95 62 98 63 128 48z m2019 -35 c0 -12 -13 -15 -59 -15 -56 0 -79 9
-64 24 3 3 33 6 65 6 45 0 58 -3 58 -15z m478 3 c-4 -10 -53 -14 -191 -16
-162 -2 -187 0 -187 13 0 13 27 15 191 15 148 0 190 -3 187 -12z m-2515 -107
c9 -16 17 -32 17 -35 0 -8 -147 -106 -159 -106 -10 0 -56 59 -50 64 10 9 165
106 169 106 3 0 13 -13 23 -29z m2147 4 c0 -12 -20 -15 -119 -15 -109 0 -142
6 -124 24 3 3 60 6 125 6 98 0 118 -3 118 -15z m185 0 c0 -11 -99 -20 -122
-11 -8 3 -11 11 -8 16 8 14 130 9 130 -5z m-2837 -52 c-3 -35 -9 -41 -107
-106 -88 -59 -106 -67 -117 -55 -12 12 2 28 98 106 62 51 116 92 121 92 4 0 7
-17 5 -37z m2649 -47 c-2 -6 -20 -12 -40 -14 -28 -2 -37 1 -37 12 0 15 32 25
63 18 10 -3 16 -10 14 -16z m-2039 -66 c28 -44 52 -83 52 -88 0 -4 -24 -22
-52 -39 -29 -18 -67 -42 -85 -54 l-32 -21 -21 34 c-11 18 -20 35 -20 38 0 3
16 15 35 28 l35 22 -31 51 c-17 27 -29 53 -26 56 16 15 73 52 82 52 6 0 34
-35 63 -79z m1902 65 c0 -5 -25 -11 -55 -13 -45 -2 -55 0 -55 13 0 13 10 15
55 13 30 -2 55 -7 55 -13z m-2215 -41 c20 -31 16 -44 -24 -67 l-31 -18 -20 33
c-25 41 -25 40 8 60 38 23 47 22 67 -8z m146 -61 l20 -32 -37 -25 -38 -25 -22
32 -23 32 32 27 c18 15 36 26 40 25 4 -1 17 -17 28 -34z m-258 -12 c9 -16 17
-31 17 -34 0 -3 -16 -15 -36 -28 -38 -23 -38 -23 -66 25 -9 17 -6 23 18 43 38
30 46 29 67 -6z m2932 -52 c35 -18 59 -39 79 -73 26 -42 30 -57 29 -117 -3
-166 -108 -268 -284 -277 -140 -7 -254 40 -306 124 -32 54 -30 72 9 76 30 3
33 6 48 68 25 96 49 137 110 182 53 39 87 48 180 45 69 -2 95 -7 135 -28z
m-2789 -4 c20 -31 14 -50 -25 -69 -29 -16 -30 -15 -52 16 l-23 31 30 23 c37
30 50 30 70 -1z m-258 -17 c23 -35 20 -44 -26 -71 l-30 -17 -23 36 c-18 30
-20 38 -8 45 8 4 23 15 34 23 28 21 30 20 53 -16z m641 -37 c12 -16 21 -31 21
-34 0 -3 -16 -15 -36 -28 l-37 -22 -18 24 c-25 33 -24 44 9 68 35 26 37 26 61
-8z m-479 -53 c0 -9 -55 -48 -68 -48 -11 0 -42 44 -42 60 0 6 15 19 33 30 l32
20 22 -27 c13 -16 23 -31 23 -35z m205 22 c18 -35 15 -44 -26 -66 -28 -14 -31
-14 -49 8 -26 31 -25 43 8 67 37 28 49 26 67 -9z m-489 3 c20 -27 16 -38 -6
-18 -20 18 -26 35 -14 35 4 0 13 -8 20 -17z m652 -47 l20 -34 -38 -26 -39 -25
-22 36 c-18 29 -20 37 -8 44 8 4 23 15 34 23 28 21 30 20 53 -18z m-501 -22
c-10 -6 -77 -11 -77 -6 0 4 12 15 27 24 25 15 28 15 39 0 7 -10 12 -17 11 -18z
m2384 31 l156 -7 -10 -40 -10 -39 -414 3 -415 3 -24 28 c-13 15 -24 32 -24 37
0 6 89 11 208 12 114 2 245 4 292 6 47 2 155 0 241 -3z m-2161 -35 c17 -24 19
-34 10 -45 -24 -28 -51 -28 -81 1 l-29 27 33 23 c41 30 42 30 67 -6z m3213 10
c-12 -45 -49 -60 -149 -60 l-94 0 0 40 0 40 124 0 c120 0 124 -1 119 -20z
m-3048 -56 c20 -31 16 -44 -23 -67 l-30 -17 -23 31 -23 32 30 23 c37 30 48 30
69 -2z m-290 -38 c32 -21 43 -62 21 -84 -8 -9 -37 -19 -63 -22 -68 -7 -65 -33
9 -82 97 -64 121 -143 73 -237 -48 -96 -143 -151 -260 -151 -150 0 -259 115
-259 275 1 152 116 280 284 315 63 13 165 6 195 -14z m179 -37 c19 -32 19 -32
-5 -50 -47 -36 -130 -82 -136 -76 -3 4 8 22 26 42 17 20 31 46 31 59 0 22 32
54 55 55 6 1 19 -13 29 -30z m2986 -10 c0 -17 -57 -66 -91 -78 -24 -8 -30 -8
-26 2 2 6 10 29 18 50 12 35 15 37 56 37 25 0 43 -5 43 -11z m-4075 -116 c11
-15 1 -25 -91 -85 -57 -37 -104 -71 -104 -74 0 -9 252 -404 278 -436 18 -22
25 -18 216 106 77 51 146 95 152 99 7 4 22 -2 35 -12 l23 -19 -79 -50 c-147
-92 -200 -127 -250 -164 -59 -45 -101 -50 -131 -15 -27 30 -74 104 -74 116 0
5 -25 46 -55 91 -93 135 -167 264 -167 288 0 31 20 50 122 116 93 60 107 64
125 39z m72 -75 c32 -30 29 -39 -16 -65 l-39 -23 -21 33 -21 32 28 22 c34 28
40 28 69 1z m-109 -80 l21 -32 -35 -24 c-38 -26 -48 -23 -69 18 -14 27 -14 29
18 49 41 27 41 27 65 -11z m217 -8 c28 -29 28 -30 9 -45 -24 -18 -33 -15 -57
18 -17 22 -18 29 -7 42 17 21 22 19 55 -15z m-77 -53 l19 -33 -74 -49 c-71
-46 -74 -47 -88 -29 -23 31 -29 56 -14 65 8 4 37 24 64 43 28 19 55 35 62 35
6 1 20 -14 31 -32z m172 -29 c22 -13 40 -25 40 -28 0 -3 -13 -13 -29 -23 l-29
-17 -21 36 c-19 31 -21 54 -5 54 3 0 23 -10 44 -22z m-76 -53 l27 -35 -86 -56
c-48 -31 -92 -53 -101 -50 -15 6 -38 55 -29 64 4 4 156 109 161 111 1 1 14
-15 28 -34z m194 -27 c24 -37 23 -39 -23 -67 l-36 -21 -19 33 c-11 17 -20 35
-20 39 0 7 61 48 72 48 3 0 15 -14 26 -32z m-98 -103 c0 -7 -15 -22 -32 -34
l-33 -21 -22 28 c-30 36 -29 46 10 71 l32 21 23 -26 c12 -14 22 -31 22 -39z
m-127 -44 c9 -16 17 -31 17 -34 0 -11 -70 -48 -80 -42 -6 3 -17 19 -25 35 -14
27 -14 29 18 49 42 27 50 26 70 -8z m786 -1120 c36 -26 55 -60 65 -113 l7 -38
-151 0 -150 0 1 33 c1 95 58 152 145 145 31 -3 63 -13 83 -27z m1559 9 c37
-23 62 -72 62 -125 l0 -35 -145 0 -145 0 0 39 c0 28 8 49 27 72 59 69 136 88
201 49z m-1254 -361 c36 -29 36 -80 -1 -109 -70 -55 -151 42 -88 105 30 30 54
31 89 4z m871 -4 c32 -31 32 -69 -1 -101 -19 -20 -31 -24 -52 -19 -65 16 -85
85 -36 124 35 27 59 26 89 -4z m-1517 -50 c76 -23 142 -87 154 -149 3 -18 -7
-19 -200 -20 -225 -1 -218 -4 -189 67 43 102 121 135 235 102z m2209 4 c40
-15 73 -48 94 -94 38 -83 46 -80 -186 -84 -150 -2 -205 0 -205 8 0 20 31 74
59 104 58 63 167 93 238 66z m-1427 -254 c0 -25 -45 -63 -81 -70 -19 -3 -229
-5 -467 -3 l-434 3 -29 33 c-16 18 -29 37 -29 42 0 6 186 10 520 10 462 0 520
-2 520 -15z m1550 5 c0 -5 -13 -24 -29 -42 l-29 -33 -461 0 -460 0 -30 29
c-60 58 -78 56 489 56 334 0 520 -4 520 -10z"/>
<path d="M5526 3584 c-10 -25 -7 -104 4 -104 5 0 12 11 16 26 7 28 41 30 36 2
-3 -22 18 -34 29 -17 12 20 11 109 -1 109 -6 0 -15 -11 -20 -25 -5 -14 -14
-25 -20 -25 -6 0 -15 11 -20 25 -11 29 -16 31 -24 9z"/>
<path d="M4659 3531 c-13 -42 -2 -91 21 -91 20 0 41 49 38 87 -2 30 -7 39 -25
41 -18 3 -24 -4 -34 -37z"/>
<path d="M3460 3310 c0 -32 4 -49 10 -45 6 3 10 13 10 21 0 8 5 14 10 14 6 0
10 -6 10 -14 0 -8 5 -18 10 -21 6 -4 10 13 10 44 0 28 -4 51 -10 51 -5 0 -10
-9 -10 -20 0 -11 -4 -20 -10 -20 -5 0 -10 6 -10 14 0 8 -4 18 -10 21 -6 4 -10
-13 -10 -45z"/>
<path d="M3550 3335 c-18 -47 -22 -75 -12 -75 6 0 12 6 15 13 3 9 9 9 26 -1
18 -10 21 -10 21 3 0 19 -27 85 -35 85 -3 0 -10 -11 -15 -25z"/>
<path d="M3617 3353 c-9 -8 -9 -56 -1 -77 3 -9 15 -16 25 -16 21 0 37 26 24
38 -4 4 -10 1 -12 -6 -7 -19 -23 -3 -23 24 0 25 15 33 23 12 2 -7 8 -10 12 -6
13 12 -3 38 -23 38 -10 0 -22 -3 -25 -7z"/>
<path d="M3687 3353 c-10 -10 -8 -81 2 -87 5 -3 12 2 16 12 6 15 8 15 18 2 14
-18 87 -27 87 -11 0 6 -7 11 -15 11 -20 0 -19 10 3 26 16 13 16 13 0 14 -22 0
-24 20 -3 20 8 0 15 5 15 10 0 6 -11 10 -25 10 -22 0 -25 -4 -25 -40 0 -22 -4
-40 -9 -40 -14 0 -23 37 -15 62 6 21 5 21 -10 9 -13 -11 -19 -12 -25 -3 -4 7
-10 9 -14 5z"/>
<path d="M3827 3353 c-10 -10 -8 -81 2 -88 5 -3 13 5 17 17 l6 21 14 -24 c7
-13 14 -21 15 -16 6 28 4 74 -4 85 -10 13 -39 16 -50 5z"/>
</g>
</svg>
