<?xml version="1.0" standalone="no"?>
<!DOCTYPE svg PUBLIC "-//W3C//DTD SVG 20010904//EN"
 "http://www.w3.org/TR/2001/REC-SVG-20010904/DTD/svg10.dtd">
<svg version="1.0" xmlns="http://www.w3.org/2000/svg"
 width="1024.000000pt" height="1024.000000pt" viewBox="0 0 1024.000000 1024.000000"
 preserveAspectRatio="xMidYMid meet">

<g transform="translate(0.000000,1024.000000) scale(0.100000,-0.100000)"
fill="#000000" stroke="none">
<path d="M0 5120 l0 -5120 5120 0 5120 0 0 5120 0 5120 -5120 0 -5120 0 0
-5120z m10230 0 l0 -5110 -5110 0 -5110 0 0 5110 0 5110 5110 0 5110 0 0
-5110z"/>
<path d="M4790 8344 c-168 -74 -453 -201 -635 -281 -181 -80 -487 -215 -680
-300 -192 -85 -356 -160 -362 -165 -17 -14 -16 -83 1 -97 13 -11 555 -253 738
-329 l88 -37 0 -138 0 -139 -59 -71 c-209 -255 -316 -512 -351 -842 -12 -111
-18 -124 -55 -125 -38 0 -126 -50 -180 -101 -127 -120 -156 -305 -73 -462 54
-101 164 -180 275 -195 l47 -7 37 -109 c21 -60 62 -160 93 -223 30 -62 56
-117 56 -121 1 -4 -18 -10 -40 -14 -55 -9 -142 -50 -186 -86 -57 -48 -112
-129 -134 -199 -18 -58 -20 -93 -20 -315 l0 -251 -49 -66 c-165 -223 -255
-414 -337 -710 -49 -180 -62 -311 -41 -426 40 -219 191 -401 433 -523 97 -49
316 -118 477 -151 347 -72 662 -95 1287 -95 628 0 943 23 1287 95 355 73 590
183 744 346 78 83 109 135 146 239 24 70 27 93 27 204 -1 102 -6 146 -29 240
-73 303 -188 557 -351 777 l-54 73 0 250 c0 282 -7 322 -77 428 -59 88 -192
172 -273 172 -17 0 -30 4 -30 9 0 4 23 53 52 107 29 54 71 155 94 224 l43 125
44 7 c160 23 287 152 318 321 36 193 -95 387 -293 437 l-44 11 -12 117 c-22
214 -62 357 -146 524 -62 124 -124 219 -206 316 l-61 73 3 135 3 136 200 89
c109 49 201 89 202 89 2 0 3 -146 3 -325 l0 -326 25 -24 c31 -32 59 -32 91 0
l24 25 0 356 -1 357 123 55 c165 74 168 76 168 123 0 29 -6 42 -22 53 -13 8
-239 110 -503 227 -264 116 -613 270 -775 341 -558 247 -702 308 -724 307 -11
0 -158 -61 -326 -135z m815 -224 c3 -6 -1 -7 -9 -4 -18 7 -21 14 -7 14 6 0 13
-4 16 -10z m-588 -486 c-3 -3 -12 -4 -19 -1 -8 3 -5 6 6 6 11 1 17 -2 13 -5z
m-947 -88 c0 -2 -7 -7 -16 -10 -8 -3 -12 -2 -9 4 6 10 25 14 25 6z m2156 -17
c47 -28 43 -34 -6 -9 -22 11 -40 23 -40 25 0 9 13 5 46 -16z m-2206 -9 c-33
-23 -50 -30 -50 -22 0 5 10 14 23 20 28 14 47 15 27 2z m-518 -30 c6 0 9 -2 6
-5 -8 -9 -58 17 -52 27 3 4 12 1 20 -7 9 -8 20 -15 26 -15z m3248 -5 c-14 -8
-29 -14 -35 -14 -5 0 1 6 15 14 14 8 30 14 35 14 6 0 -1 -6 -15 -14z m-2599
-75 c-13 -11 -31 -20 -40 -20 -9 1 -1 9 19 20 45 24 51 24 21 0z m-358 -47
c15 -7 27 -15 27 -18 0 -5 -92 34 -100 42 -8 8 41 -7 73 -24z m2721 15 c-3 -4
-9 -8 -15 -8 -5 0 -9 4 -9 8 0 5 7 9 15 9 8 0 12 -4 9 -9z m-54 -22 c0 -2 -7
-7 -16 -10 -8 -3 -12 -2 -9 4 6 10 25 14 25 6z m-2373 -203 c-2 -37 -3 -9 -3
62 0 72 1 102 3 68 2 -34 2 -93 0 -130z m2070 -5 c-2 -29 -3 -8 -3 47 0 55 1
79 3 53 2 -26 2 -71 0 -100z m-1757 -88 c-8 -5 -19 -10 -25 -10 -5 0 -3 5 5
10 8 5 20 10 25 10 6 0 3 -5 -5 -10z m-43 -16 c-3 -3 -12 -4 -19 -1 -8 3 -5 6
6 6 11 1 17 -2 13 -5z m1143 -59 c335 -52 646 -167 739 -271 119 -134 252
-380 296 -548 14 -55 24 -100 23 -101 -2 -1 -48 11 -103 27 -181 52 -372 164
-513 301 -69 67 -160 188 -218 288 -74 127 -103 129 -191 12 -165 -221 -401
-399 -673 -508 -176 -71 -241 -87 -385 -95 -93 -5 -148 -13 -193 -29 -45 -15
-104 -24 -207 -31 -145 -9 -395 -3 -395 10 0 4 16 65 35 136 40 145 96 268
181 394 103 155 137 188 243 238 195 91 426 153 696 186 156 20 516 15 665 -9z
m208 -529 c190 -257 458 -436 767 -513 55 -14 101 -26 101 -27 1 0 5 -24 9
-53 l7 -52 -131 -65 c-72 -37 -135 -66 -139 -66 -5 0 -19 25 -31 57 -113 295
-467 433 -761 297 -124 -57 -238 -179 -281 -299 l-22 -60 -109 0 c-87 0 -108
3 -108 14 0 8 -17 49 -37 90 -28 55 -59 97 -114 152 l-77 77 76 27 c164 58
374 178 518 296 77 63 234 225 235 243 0 11 4 6 97 -118z m177 -518 c66 -16
132 -58 190 -119 166 -174 164 -426 -4 -596 -76 -78 -159 -115 -272 -121 -143
-7 -246 34 -344 139 -56 59 -93 137 -108 224 -29 172 73 365 238 445 96 47
189 56 300 28z m-1234 -26 c212 -104 304 -354 208 -563 -39 -85 -131 -177
-216 -217 -52 -24 -69 -27 -173 -27 -111 0 -117 1 -182 34 -169 85 -269 271
-240 447 27 161 131 288 283 344 43 16 73 20 155 18 89 -3 107 -7 165 -36z
m-784 -24 l170 -2 -32 -48 c-18 -25 -43 -72 -56 -102 -12 -31 -27 -56 -31 -56
-5 0 -65 28 -133 63 l-125 62 0 48 c0 43 2 48 18 42 11 -3 96 -6 189 -7z
m-362 -345 c-3 -82 -2 -191 3 -243 6 -52 8 -97 6 -99 -9 -10 -82 21 -117 50
-107 88 -115 254 -18 362 31 35 98 76 124 77 5 0 6 -66 2 -147z m3296 121 c43
-22 105 -100 119 -149 32 -116 -20 -243 -122 -296 -66 -34 -63 -44 -63 226 0
273 -5 255 66 219z m-3022 -68 l128 -65 6 -68 c21 -236 205 -438 447 -489 317
-67 641 169 668 484 6 75 23 92 92 92 65 0 90 -20 90 -75 0 -24 11 -79 25
-122 39 -124 111 -219 222 -293 263 -176 610 -105 786 160 48 73 78 159 85
243 l5 68 129 65 c72 36 133 62 137 59 3 -4 6 -91 6 -193 -1 -139 -5 -210 -19
-277 -124 -621 -591 -1088 -1211 -1211 -133 -27 -396 -24 -529 5 -471 101
-855 400 -1061 825 -111 228 -164 497 -149 749 4 59 9 107 11 107 2 0 61 -29
132 -64z m549 -1566 c26 -16 73 -41 104 -55 52 -24 57 -29 63 -66 24 -138 180
-332 325 -402 104 -51 187 -70 300 -71 170 0 321 58 440 171 89 83 138 158
172 258 26 78 28 81 80 109 29 15 75 41 101 57 27 16 51 29 54 29 4 0 4 -289
0 -642 -6 -704 -5 -722 51 -875 54 -148 161 -287 280 -363 l53 -34 -3 -80 -3
-80 -95 -17 c-286 -51 -589 -70 -1130 -70 -532 0 -846 20 -1130 70 l-95 17 -3
79 -2 80 61 40 c157 103 285 314 318 520 6 41 8 297 4 710 -4 355 -3 645 0
645 4 0 28 -13 55 -30z m-571 -1050 c0 -700 -4 -960 -12 -960 -34 0 -204 58
-291 100 -226 107 -339 221 -386 389 -22 79 -23 149 -4 256 79 448 264 789
591 1093 49 45 92 82 96 82 4 0 7 -432 6 -960z m2851 854 c248 -236 412 -496
500 -794 103 -345 107 -479 20 -643 -60 -112 -221 -235 -401 -306 -75 -30
-210 -71 -233 -71 -7 0 -11 272 -11 960 -1 528 2 960 7 960 4 0 57 -48 118
-106z m-1813 19 c101 -25 127 -27 325 -27 201 0 223 2 334 28 65 15 125 30
134 33 26 10 -38 -95 -94 -156 -153 -165 -393 -208 -604 -108 -78 36 -182 136
-224 216 l-29 54 24 -7 c13 -4 74 -19 134 -33z"/>
<path d="M5634 5641 c-87 -53 -82 -186 8 -241 86 -52 208 17 208 118 0 46 -35
109 -70 127 -40 21 -108 19 -146 -4z"/>
<path d="M4455 5640 c-59 -39 -81 -119 -50 -180 46 -88 159 -104 229 -31 56
58 41 170 -28 212 -41 25 -112 25 -151 -1z"/>
<path d="M4800 4900 c-25 -25 -26 -64 -1 -89 34 -34 112 -74 180 -93 150 -41
330 -10 449 79 38 29 43 72 12 103 -28 28 -44 26 -135 -20 -134 -68 -258 -65
-391 11 -61 34 -87 36 -114 9z"/>
</g>
</svg>
