<svg version="1.1" xmlns="http://www.w3.org/2000/svg" style="display: block;" viewBox="0 0 2048 2048" width="1024" height="1024" preserveAspectRatio="none">
<path transform="translate(0,0)" fill="rgb(35,80,113)" d="M 1012.55 273.084 C 1019.74 275.587 1027.55 275.685 1034.8 273.362 C 1035.85 289.297 1035.94 325.697 1037.74 338.763 C 1074.56 337.93 1106.13 330.55 1114.75 375.668 C 1139.9 377.26 1177.96 375.771 1204.2 375.829 L 1219.75 375.907 L 1278.68 375.982 C 1291.95 375.969 1310.86 374.974 1322.95 377.635 C 1340.82 381.567 1351.8 403.447 1350.21 420.644 C 1349.65 426.746 1350.31 435.286 1350.32 441.42 L 1350.3 506.207 C 1350.28 515.127 1349.78 530.713 1350.34 538.997 C 1363.13 538.94 1384.2 536.63 1394.29 545.27 C 1397.44 547.969 1400.57 553.497 1401.56 557.524 C 1403.49 570.581 1402.92 585.811 1403 599.026 C 1403.14 621.21 1403.08 643.063 1403.07 665.24 C 1403.07 675.418 1401.48 680.605 1394.3 688.224 C 1384.27 698.845 1364.83 695.014 1350.1 695.938 L 1350 697.132 C 1347.79 725.699 1351.29 757.552 1350.1 786.44 C 1349.6 798.392 1351.99 814.099 1348.39 825.42 C 1338.45 856.604 1310.37 851.839 1285.2 851.988 C 1262.87 852.12 1241.38 851.29 1219.83 851.923 C 1215.09 851.526 1208.13 851.715 1203.21 851.699 L 1144.95 851.722 C 1144.88 868.33 1144.9 884.938 1145.03 901.546 C 1129.95 900.081 1085.9 901.276 1068.3 901.248 L 905.045 901.192 L 904.003 901.06 C 903.228 886.175 903.408 867.336 903.182 852.263 C 892.763 850.985 855.439 851.994 843.287 852.063 C 838.742 851.866 833.412 851.963 828.795 851.927 C 799.514 851.962 770.156 852.216 740.871 851.983 C 736.183 851.527 728.985 851.79 724.576 850.133 C 691.026 837.523 697.451 803 697.315 775.106 C 697.183 748.034 698.35 722.144 697.552 695.779 C 684.233 695.467 664.248 698.457 654.323 688.741 C 651.967 686.435 646.928 679.442 646.696 676.186 C 644.269 642.109 646.103 606.138 645.588 571.885 C 645.42 560.74 646.599 552.162 654.494 545.157 C 665.366 535.511 683.693 538.277 697.826 538.848 C 698.554 501.809 696.755 462.764 697.065 425.634 C 697.527 370.333 730.103 375.96 770.607 376.053 L 828.479 376.011 C 833.362 376.088 838.786 376.047 843.613 376.283 C 870.525 376.291 908.257 377.458 934.583 376.018 C 936.437 330.004 978.085 338.723 1011.15 339.012 C 1010.77 318.53 1012.3 294.121 1012.55 273.084 z"/>
<path transform="translate(0,0)" fill="rgb(116,192,221)" d="M 1012.55 273.084 C 1019.74 275.587 1027.55 275.685 1034.8 273.362 C 1035.85 289.297 1035.94 325.697 1037.74 338.763 C 1074.56 337.93 1106.13 330.55 1114.75 375.668 C 1139.9 377.26 1177.96 375.771 1204.2 375.829 L 1204.41 533.169 C 1199.26 532.912 1194.09 532.792 1188.93 532.807 C 1162.82 533.016 1136.84 544.861 1118.79 563.591 C 1100.07 583.098 1089.99 609.309 1090.8 636.329 C 1092.05 684.99 1128.24 726.374 1176.82 733.082 C 1186.54 734.424 1194.58 734.229 1204.43 733.962 C 1204.6 746.492 1204.41 759.43 1204.38 771.994 L 843.462 772.08 L 843.331 733.838 C 847.78 734.118 852.236 734.256 856.693 734.25 C 883.892 734.203 909.945 723.289 929.055 703.935 C 947.778 684.804 957.999 658.935 957.41 632.173 C 957.074 605.162 945.955 579.405 926.528 560.636 C 901.069 536.432 876.738 532.287 843.554 533.185 C 843.001 481.074 843.474 428.422 843.613 376.283 C 870.525 376.291 908.257 377.458 934.583 376.018 C 936.437 330.004 978.085 338.723 1011.15 339.012 C 1010.77 318.53 1012.3 294.121 1012.55 273.084 z"/>
<path transform="translate(0,0)" fill="rgb(35,80,113)" d="M 1012.55 273.084 C 1019.74 275.587 1027.55 275.685 1034.8 273.362 C 1035.85 289.297 1035.94 325.697 1037.74 338.763 C 1074.56 337.93 1106.13 330.55 1114.75 375.668 C 1055.08 377.042 994.428 375.394 934.583 376.018 C 936.437 330.004 978.085 338.723 1011.15 339.012 C 1010.77 318.53 1012.3 294.121 1012.55 273.084 z"/>
<path transform="translate(0,0)" fill="rgb(254,254,254)" d="M 1005.91 424.922 L 1050.93 425.189 C 1041.91 443.268 1033.86 462.869 1024.87 481.347 C 1040.18 481.615 1055.5 481.628 1070.81 481.386 C 1056.52 503.926 1036.57 530.989 1021.02 553.588 C 1014.37 563.424 1007.78 573.306 1001.27 583.234 C 1007.12 559.446 1014.79 534.474 1021.63 510.819 C 1006.9 510.298 991.554 510.532 976.762 510.567 L 1005.91 424.922 z"/>
<path transform="translate(0,0)" fill="rgb(182,191,192)" d="M 697.826 538.848 C 698.554 501.809 696.755 462.764 697.065 425.634 C 697.527 370.333 730.103 375.96 770.607 376.053 L 828.479 376.011 L 828.632 536.421 C 799.178 547.293 778.815 561.47 765.137 590.996 C 753.683 615.539 752.658 643.675 762.298 668.987 C 771.838 694.366 791.172 714.85 815.959 725.838 C 820.093 727.672 824.299 729.335 828.568 730.825 C 828.597 770.429 827.906 812.535 828.795 851.927 C 799.514 851.962 770.156 852.216 740.871 851.983 C 736.183 851.527 728.985 851.79 724.576 850.133 C 691.026 837.523 697.451 803 697.315 775.106 C 697.183 748.034 698.35 722.144 697.552 695.779 C 684.233 695.467 664.248 698.457 654.323 688.741 C 651.967 686.435 646.928 679.442 646.696 676.186 C 644.269 642.109 646.103 606.138 645.588 571.885 C 645.42 560.74 646.599 552.162 654.494 545.157 C 665.366 535.511 683.693 538.277 697.826 538.848 z"/>
<path transform="translate(0,0)" fill="rgb(35,80,113)" d="M 697.552 695.779 C 684.233 695.467 664.248 698.457 654.323 688.741 C 651.967 686.435 646.928 679.442 646.696 676.186 C 644.269 642.109 646.103 606.138 645.588 571.885 C 645.42 560.74 646.599 552.162 654.494 545.157 C 665.366 535.511 683.693 538.277 697.826 538.848 C 697.346 553.219 697.43 568.517 697.652 582.909 C 698.231 620.438 697.03 658.29 697.552 695.779 z"/>
<path transform="translate(0,0)" fill="rgb(154,164,165)" d="M 1219.75 375.907 L 1278.68 375.982 C 1291.95 375.969 1310.86 374.974 1322.95 377.635 C 1340.82 381.567 1351.8 403.447 1350.21 420.644 C 1349.65 426.746 1350.31 435.286 1350.32 441.42 L 1350.3 506.207 C 1350.28 515.127 1349.78 530.713 1350.34 538.997 C 1363.13 538.94 1384.2 536.63 1394.29 545.27 C 1397.44 547.969 1400.57 553.497 1401.56 557.524 C 1403.49 570.581 1402.92 585.811 1403 599.026 C 1403.14 621.21 1403.08 643.063 1403.07 665.24 C 1403.07 675.418 1401.48 680.605 1394.3 688.224 C 1384.27 698.845 1364.83 695.014 1350.1 695.938 L 1350 697.132 C 1347.79 725.699 1351.29 757.552 1350.1 786.44 C 1349.6 798.392 1351.99 814.099 1348.39 825.42 C 1338.45 856.604 1310.37 851.839 1285.2 851.988 C 1262.87 852.12 1241.38 851.29 1219.83 851.923 L 1219.72 730.546 C 1224.47 728.929 1229.15 727.331 1233.72 725.238 C 1258.2 714.067 1277.22 693.6 1286.57 668.367 C 1295.3 644.5 1294.35 613.195 1283.12 590.413 C 1269.19 562.145 1248.56 546.611 1219.79 536.11 L 1219.75 375.907 z"/>
<path transform="translate(0,0)" fill="rgb(35,80,113)" d="M 1350.34 538.997 C 1363.13 538.94 1384.2 536.63 1394.29 545.27 C 1397.44 547.969 1400.57 553.497 1401.56 557.524 C 1403.49 570.581 1402.92 585.811 1403 599.026 C 1403.14 621.21 1403.08 643.063 1403.07 665.24 C 1403.07 675.418 1401.48 680.605 1394.3 688.224 C 1384.27 698.845 1364.83 695.014 1350.1 695.938 C 1351.67 677.186 1350.82 643.962 1350.71 624.317 C 1350.57 597.703 1351.59 565.178 1350.34 538.997 z"/>
<path transform="translate(0,0)" fill="rgb(35,80,113)" d="M 905.462 851.473 C 920.087 852.398 939.055 851.912 953.997 851.906 L 1036.97 851.74 C 1071.34 851.502 1111.35 852.977 1144.95 851.722 C 1144.88 868.33 1144.9 884.938 1145.03 901.546 C 1129.95 900.081 1085.9 901.276 1068.3 901.248 L 905.045 901.192 L 904.003 901.06 C 903.228 886.175 903.408 867.336 903.182 852.263 L 905.462 851.473 z"/>
<path transform="translate(0,0)" fill="rgb(154,164,165)" d="M 1023.77 787.054 L 1204.74 787.08 C 1204.77 805.066 1205.72 833.418 1204.43 850.593 L 1203.21 851.699 L 1144.95 851.722 C 1111.35 852.977 1071.34 851.502 1036.97 851.74 L 953.997 851.906 C 939.055 851.912 920.087 852.398 905.462 851.473 C 911.505 850.327 937.192 850.756 944.403 850.766 L 1023.91 850.854 C 1024.23 829.588 1024.18 808.318 1023.77 787.054 z"/>
<path transform="translate(0,0)" fill="rgb(182,191,192)" d="M 843.575 786.921 L 1023.77 787.054 C 1024.18 808.318 1024.23 829.588 1023.91 850.854 L 944.403 850.766 C 937.192 850.756 911.505 850.327 905.462 851.473 L 903.182 852.263 C 892.763 850.985 855.439 851.994 843.287 852.063 C 844.073 831.609 843.349 807.78 843.575 786.921 z"/>
<path transform="translate(0,0)" fill="rgb(182,191,192)" d="M 1178.86 557.788 C 1220.81 550.703 1260.51 579.114 1267.33 621.104 C 1274.16 663.094 1245.5 702.617 1203.47 709.184 C 1161.81 715.693 1122.7 687.34 1115.93 645.715 C 1109.17 604.09 1137.28 564.811 1178.86 557.788 z"/>
<path transform="translate(0,0)" fill="rgb(35,80,113)" d="M 1189.21 578.336 C 1219.35 577.041 1244.95 600.198 1246.67 630.323 C 1248.39 660.448 1225.6 686.369 1195.5 688.514 C 1175.65 689.928 1156.58 680.545 1145.58 663.957 C 1134.59 647.37 1133.37 626.147 1142.41 608.416 C 1151.44 590.684 1169.33 579.191 1189.21 578.336 z"/>
<path transform="translate(0,0)" fill="rgb(254,254,254)" d="M 1207.08 595.507 C 1216.49 593.413 1225.81 599.369 1227.86 608.789 C 1229.92 618.21 1223.92 627.506 1214.5 629.521 C 1205.12 631.524 1195.89 625.572 1193.85 616.207 C 1191.81 606.842 1197.72 597.588 1207.08 595.507 z"/>
<path transform="translate(0,0)" fill="rgb(182,191,192)" d="M 845.849 557.631 C 887.827 551.546 926.768 580.704 932.744 622.698 C 938.721 664.691 909.462 703.557 867.454 709.425 C 825.598 715.272 786.905 686.143 780.95 644.303 C 774.995 602.462 804.024 563.694 845.849 557.631 z"/>
<path transform="translate(0,0)" fill="rgb(35,80,113)" d="M 854.898 578.444 C 885.35 577.375 910.884 601.235 911.88 631.69 C 912.875 662.145 888.954 687.621 858.497 688.543 C 828.143 689.462 802.773 665.64 801.78 635.289 C 800.788 604.938 824.549 579.51 854.898 578.444 z"/>
<path transform="translate(0,0)" fill="rgb(254,254,254)" d="M 872.857 595.506 C 882.286 593.558 891.495 599.667 893.367 609.111 C 895.239 618.555 889.056 627.715 879.598 629.511 C 870.246 631.286 861.212 625.188 859.361 615.851 C 857.511 606.514 863.536 597.432 872.857 595.506 z"/>
<path transform="translate(0,0)" fill="rgb(35,80,113)" d="M 904.003 901.06 L 905.045 901.192 L 1068.3 901.248 C 1085.9 901.276 1129.95 900.081 1145.03 901.546 C 1164.83 901.749 1184.64 901.788 1204.44 901.664 C 1209.28 901.668 1214.91 901.799 1219.68 901.654 C 1241.76 901.401 1281.25 896.665 1295.7 912.684 C 1304.88 922.868 1304.07 929.236 1308.05 940.179 C 1306.02 944.927 1307.35 1105.82 1307.04 1126.35 L 1306.88 1307.96 L 1306.87 1323.23 L 1306.98 1387.03 C 1307.02 1411.88 1311.43 1451.84 1278.3 1457.93 C 1264.46 1460.47 1245.34 1458.67 1230.8 1458.87 C 1230.75 1496.46 1229.58 1540.77 1230.99 1577.89 L 1230.88 1588.98 L 1184.26 1588.99 C 1168.7 1574.03 1153.44 1558.77 1138.49 1543.2 C 1137.6 1516.04 1138.29 1486.16 1138.52 1458.93 L 1069.15 1458.96 C 1050.11 1458.43 1028.61 1458.88 1009.39 1458.75 C 1001.26 1459.28 986.808 1458.91 978.253 1458.94 L 909.995 1458.93 C 910.109 1485.68 909.383 1515.99 910.164 1542.39 C 901.467 1552.8 874.925 1579.11 864.428 1588.88 C 853.289 1588.96 828.664 1589.76 818.602 1588.69 C 816.774 1584.72 817.903 1583.29 817.287 1580.07 L 817.266 1578.96 C 818.265 1570.12 817.698 1548.37 817.681 1538.47 L 817.593 1459.01 C 795.939 1458.47 768.441 1463.69 753.223 1448.78 C 748.127 1443.79 744.458 1437.53 742.598 1430.64 C 740.084 1421.06 740.842 1398.63 740.862 1388.05 L 741.106 1324.22 L 741.018 1323.12 C 741.252 1318.17 741.093 1312.99 741.038 1308.02 L 741.012 1124.9 C 740.557 1109.62 741.187 1091.99 741.207 1076.5 L 741.059 988.104 C 741.119 973.849 742.283 953.52 741.531 940.193 C 747.118 891.905 792.002 901.794 828.516 902.173 L 843.516 902.163 C 852.626 902.19 898.779 902.99 904.003 901.06 z"/>
<path transform="translate(0,0)" fill="rgb(104,179,207)" d="M 1024.13 1308.01 L 1306.88 1307.96 L 1306.87 1323.23 L 1306.98 1387.03 C 1307.02 1411.88 1311.43 1451.84 1278.3 1457.93 C 1264.46 1460.47 1245.34 1458.67 1230.8 1458.87 C 1230.75 1496.46 1229.58 1540.77 1230.99 1577.89 L 1230.88 1588.98 L 1184.26 1588.99 C 1168.7 1574.03 1153.44 1558.77 1138.49 1543.2 C 1137.6 1516.04 1138.29 1486.16 1138.52 1458.93 L 1069.15 1458.96 C 1050.11 1458.43 1028.61 1458.88 1009.39 1458.75 C 1001.26 1459.28 986.808 1458.91 978.253 1458.94 L 909.995 1458.93 C 910.109 1485.68 909.383 1515.99 910.164 1542.39 C 901.467 1552.8 874.925 1579.11 864.428 1588.88 C 853.289 1588.96 828.664 1589.76 818.602 1588.69 C 816.774 1584.72 817.903 1583.29 817.287 1580.07 L 817.266 1578.96 C 818.265 1570.12 817.698 1548.37 817.681 1538.47 L 817.593 1459.01 C 795.939 1458.47 768.441 1463.69 753.223 1448.78 C 748.127 1443.79 744.458 1437.53 742.598 1430.64 C 740.084 1421.06 740.842 1398.63 740.862 1388.05 L 741.106 1324.22 L 741.018 1323.12 C 741.252 1318.17 741.093 1312.99 741.038 1308.02 L 1024.13 1308.01 z"/>
<path transform="translate(0,0)" fill="rgb(116,192,221)" d="M 741.106 1324.22 L 1024.05 1324 L 1023.96 1457.58 C 1018.82 1457.59 1014.25 1457.22 1009.39 1458.75 C 1001.26 1459.28 986.808 1458.91 978.253 1458.94 L 909.995 1458.93 C 910.109 1485.68 909.383 1515.99 910.164 1542.39 C 901.467 1552.8 874.925 1579.11 864.428 1588.88 C 853.289 1588.96 828.664 1589.76 818.602 1588.69 C 816.774 1584.72 817.903 1583.29 817.287 1580.07 L 817.266 1578.96 C 818.265 1570.12 817.698 1548.37 817.681 1538.47 L 817.593 1459.01 C 795.939 1458.47 768.441 1463.69 753.223 1448.78 C 748.127 1443.79 744.458 1437.53 742.598 1430.64 C 740.084 1421.06 740.842 1398.63 740.862 1388.05 L 741.106 1324.22 z"/>
<path transform="translate(0,0)" fill="rgb(35,80,113)" d="M 857.973 1458.96 L 899.028 1458.92 L 899.126 1538.4 C 886.966 1550.55 871.661 1566.79 859.233 1578.06 C 852.058 1577.95 822.869 1577.16 817.266 1578.96 C 818.265 1570.12 817.698 1548.37 817.681 1538.47 L 817.593 1459.01 L 846.937 1458.98 L 846.864 1507.24 C 814.214 1521.74 842.82 1554.84 863.763 1541.91 C 875.017 1534.96 874.84 1513.69 857.906 1507.39 L 857.973 1458.96 z"/>
<path transform="translate(0,0)" fill="rgb(35,80,113)" d="M 849.757 1517.36 C 852.838 1516.5 856.143 1517.41 858.345 1519.73 C 860.547 1522.06 861.287 1525.4 860.267 1528.44 C 859.246 1531.47 856.634 1533.69 853.477 1534.21 C 848.95 1534.95 844.633 1532.02 843.644 1527.54 C 842.655 1523.06 845.339 1518.59 849.757 1517.36 z"/>
<path transform="translate(0,0)" fill="rgb(35,80,113)" d="M 1190.86 1506.78 C 1193.68 1495.42 1186.35 1464.63 1194.6 1458.13 C 1197.85 1457.85 1198.17 1457.59 1201.29 1458.72 C 1207.83 1459.34 1223.56 1458.86 1230.8 1458.87 C 1230.75 1496.46 1229.58 1540.77 1230.99 1577.89 C 1217.18 1578.13 1202.77 1577.9 1188.92 1577.88 C 1180.16 1570.21 1156.38 1546.54 1149.23 1537.88 L 1149.08 1458.87 L 1189.98 1459 C 1189.93 1469.32 1189.32 1497.51 1190.86 1506.78 z"/>
<path transform="translate(0,0)" fill="rgb(116,192,221)" d="M 1190.86 1506.78 C 1193.68 1495.42 1186.35 1464.63 1194.6 1458.13 C 1197.85 1457.85 1198.17 1457.59 1201.29 1458.72 L 1201.24 1507.28 C 1214.78 1513.53 1218.21 1520.92 1212.83 1536.14 C 1209.42 1545.77 1194.26 1546.88 1186.79 1541.99 C 1170.64 1531.72 1173.72 1513.43 1190.86 1506.78 z"/>
<path transform="translate(0,0)" fill="rgb(35,80,113)" d="M 1192.92 1517.7 C 1195.86 1516.54 1199.2 1517.1 1201.62 1519.15 C 1204.03 1521.2 1205.12 1524.4 1204.46 1527.5 C 1203.8 1530.59 1201.49 1533.07 1198.45 1533.96 C 1194.04 1535.24 1189.4 1532.83 1187.92 1528.48 C 1186.43 1524.12 1188.64 1519.38 1192.92 1517.7 z"/>
<path transform="translate(0,0)" fill="rgb(35,80,113)" d="M 1024.13 1308.01 L 1306.88 1307.96 L 1306.87 1323.23 L 741.018 1323.12 C 741.252 1318.17 741.093 1312.99 741.038 1308.02 L 1024.13 1308.01 z"/>
<path transform="translate(0,0)" fill="rgb(182,191,192)" d="M 741.531 940.193 C 747.118 891.905 792.002 901.794 828.516 902.173 L 828.762 1004.33 L 893.587 1069.33 C 879.954 1107.71 878.795 1143.87 896.57 1181.45 C 913.334 1216.03 943.105 1242.58 979.38 1255.28 C 994.898 1260.67 1007.72 1262.16 1023.91 1262.94 C 1023.78 1277.97 1023.85 1292.99 1024.13 1308.01 L 741.038 1308.02 L 741.012 1124.9 C 740.557 1109.62 741.187 1091.99 741.207 1076.5 L 741.059 988.104 C 741.119 973.849 742.283 953.52 741.531 940.193 z"/>
<path transform="translate(0,0)" fill="rgb(154,164,165)" d="M 1219.68 901.654 C 1241.76 901.401 1281.25 896.665 1295.7 912.684 C 1304.88 922.868 1304.07 929.236 1308.05 940.179 C 1306.02 944.927 1307.35 1105.82 1307.04 1126.35 L 1306.88 1307.96 L 1024.13 1308.01 C 1023.85 1292.99 1023.78 1277.97 1023.91 1262.94 C 1040.42 1262.3 1052.78 1260.73 1068.58 1255.37 C 1104.32 1243.19 1133.83 1217.45 1150.74 1183.7 C 1169.58 1145.22 1168.54 1108.47 1154.81 1068.82 C 1175.29 1048.01 1198.44 1024.36 1219.58 1004.54 L 1219.68 901.654 z"/>
<path transform="translate(0,0)" fill="rgb(104,179,207)" d="M 1145.03 901.546 C 1164.83 901.749 1184.64 901.788 1204.44 901.664 C 1204.73 933.597 1204.2 965.912 1204.78 997.719 C 1187.2 1015.22 1163.93 1037.08 1147.68 1055.06 C 1117.78 1005.71 1075.86 980.031 1017.42 981.743 L 1023.46 980.239 C 1025.22 974.802 1023.98 911.56 1023.98 902.27 C 1009.04 902.195 912.261 903.907 905.045 901.192 L 1068.3 901.248 C 1085.9 901.276 1129.95 900.081 1145.03 901.546 z"/>
<path transform="translate(0,0)" fill="rgb(116,192,221)" d="M 904.003 901.06 L 905.045 901.192 C 912.261 903.907 1009.04 902.195 1023.98 902.27 C 1023.98 911.56 1025.22 974.802 1023.46 980.239 L 1017.42 981.743 C 963.447 984.829 928.688 1010.22 900.536 1054.81 C 883.345 1036.82 861.925 1015.05 843.799 997.907 C 842.568 967.77 843.404 932.487 843.516 902.163 C 852.626 902.19 898.779 902.99 904.003 901.06 z"/>
<path transform="translate(0,0)" fill="rgb(182,191,192)" d="M 1008.38 1014.36 C 1019.32 1013.84 1029 1013.96 1039.93 1014.13 L 1045.66 1039.77 C 1054.55 1043.07 1059.4 1044.57 1067.76 1049.09 C 1073.73 1044.33 1082.73 1039.06 1089.38 1034.9 C 1096.58 1041.72 1104.47 1050.01 1111.52 1057.12 L 1097.46 1078.73 C 1100.78 1086.33 1103.45 1092.53 1106.13 1100.35 L 1131.95 1105.92 C 1132.27 1116.35 1132.31 1126.79 1132.07 1137.23 C 1124.14 1139.53 1114.13 1141.61 1105.97 1143.55 C 1103.06 1151.95 1101.07 1156.85 1097.24 1164.86 C 1102.09 1171.84 1106.82 1178.91 1111.41 1186.06 C 1104.85 1193.9 1096.61 1201.62 1089.27 1208.84 L 1067.39 1194.58 C 1059.69 1198.47 1053.53 1200.84 1045.43 1203.95 C 1043.85 1211.59 1042.04 1221.87 1039.6 1229.05 C 1029.21 1229.27 1018.81 1229.27 1008.42 1229.07 C 1006.21 1220.17 1004.89 1213.13 1003.37 1204.06 C 994.6 1201.21 988.637 1198.46 980.325 1194.65 C 973.012 1199.8 966.703 1203.72 959.025 1208.36 C 951.455 1201.22 944.141 1194.03 937.282 1186.19 C 941.676 1178.31 946.158 1171.96 951.261 1164.59 C 946.929 1156.12 945.339 1152.3 942.348 1143.31 C 934.138 1141.12 924.636 1139.17 916.298 1137.34 C 915.783 1127.48 916.068 1116 916.078 1106.01 C 924.82 1104.34 933.521 1102.45 942.171 1100.35 C 944.889 1091.99 947.174 1086.86 951.027 1079.03 C 946.238 1071.7 941.506 1064.33 936.832 1056.93 C 943.82 1049.49 951.945 1041.75 959.235 1034.51 L 980.556 1048.89 C 989.026 1044.9 993.767 1042.92 1002.67 1040.24 C 1004.87 1032.49 1006.31 1022.62 1008.38 1014.36 z"/>
<path transform="translate(0,0)" fill="rgb(35,80,113)" d="M 1015.69 1065.54 C 1047.02 1060.86 1076.16 1082.63 1080.56 1114 C 1084.96 1145.38 1062.93 1174.32 1031.51 1178.43 C 1000.5 1182.49 972.01 1160.8 967.669 1129.83 C 963.328 1098.85 984.757 1070.17 1015.69 1065.54 z"/>
<path transform="translate(0,0)" fill="rgb(116,192,221)" d="M 1016.4 1090.54 C 1033.78 1086.27 1051.32 1096.95 1055.51 1114.36 C 1059.69 1131.76 1048.93 1149.25 1031.51 1153.35 C 1014.2 1157.43 996.859 1146.75 992.701 1129.47 C 988.543 1112.18 999.135 1094.78 1016.4 1090.54 z"/>
<path transform="translate(0,0)" fill="rgb(116,192,221)" d="M 636.53 1000.19 C 633.966 976.396 654.031 963.393 672.525 953.584 C 694.012 942.187 717.654 940.073 741.531 940.193 C 742.283 953.52 741.119 973.849 741.059 988.104 L 741.207 1076.5 C 741.187 1091.99 740.557 1109.62 741.012 1124.9 C 729.941 1133.43 720.822 1134.94 709.14 1126.48 C 664.051 1179.63 637.574 1231.31 622.474 1299.6 C 619.154 1314.62 615.276 1329.27 615.926 1344.73 C 635.988 1346.59 634.967 1367.22 633.574 1382.78 C 632.625 1393.37 627.057 1400.19 616.212 1401.2 C 591.446 1399.86 559.47 1401.09 533.869 1400.89 C 515.425 1400.75 479.068 1399.78 461.66 1401.4 C 439.083 1399.9 439.899 1365.6 447.93 1350.69 C 450.493 1345.93 461.18 1345.82 466.684 1345.42 C 469.814 1328.23 470.954 1309.83 474.425 1291.45 C 486.958 1224.15 512.443 1159.93 549.463 1102.34 C 563.847 1080.42 579.995 1059.7 597.744 1040.39 C 607.094 1030.3 616.585 1020.44 627.196 1011.65 C 631.541 1008.04 635.45 1005.79 636.53 1000.19 z"/>
<path transform="translate(0,0)" fill="rgb(35,80,113)" d="M 636.53 1000.19 C 638.036 1006.14 646.105 1020.11 649.377 1026.19 C 610.518 1060.52 578.298 1101.69 554.323 1147.66 C 533.153 1146.62 524.909 1168.78 537.23 1180.02 C 541.585 1183.96 547.397 1185.87 553.237 1185.3 C 572.355 1183.52 573.373 1165.98 564.87 1151.95 C 590.845 1105.23 615.297 1072.33 655.04 1036.07 C 658.712 1042.45 662.646 1049.06 666.111 1055.53 C 639.042 1081.38 620.338 1103.5 600.121 1135.33 C 607.184 1153.66 615.925 1171.08 623.196 1189.19 C 606.745 1222.25 600.002 1241.37 590.285 1276.93 C 580.06 1276.85 568.825 1276.52 558.682 1276.82 C 554.15 1294.8 549.192 1326.85 548.582 1345.2 L 526.315 1345.17 C 529.38 1310.86 534.777 1282.27 543.072 1249.08 C 554.379 1247.19 564.269 1239.93 561.735 1227.26 C 560.576 1221.34 556.933 1216.21 551.731 1213.16 C 533.332 1202.33 509.571 1226.11 532.137 1246.78 C 524.564 1276.09 517.046 1314.69 515.775 1345.16 C 501.376 1345.12 480.569 1344.45 466.684 1345.42 C 469.814 1328.23 470.954 1309.83 474.425 1291.45 C 486.958 1224.15 512.443 1159.93 549.463 1102.34 C 563.847 1080.42 579.995 1059.7 597.744 1040.39 C 607.094 1030.3 616.585 1020.44 627.196 1011.65 C 631.541 1008.04 635.45 1005.79 636.53 1000.19 z"/>
<path transform="translate(0,0)" fill="rgb(35,80,113)" d="M 672.329 1065.55 C 676.612 1072.43 680.936 1080.7 684.897 1087.86 C 668.92 1104.67 659.148 1115.04 645.866 1134.46 C 648.759 1137.4 651.163 1138.9 654.557 1141.28 C 667.144 1124.45 676.298 1112.77 691.367 1098.1 C 696.732 1107.59 702.212 1118.13 709.14 1126.48 C 664.051 1179.63 637.574 1231.31 622.474 1299.6 C 619.154 1314.62 615.276 1329.27 615.926 1344.73 C 601.798 1346.06 574.145 1345.15 559.163 1345.07 C 561.192 1324.99 564.132 1307.46 567.818 1287.66 C 578.33 1287.43 588.49 1287.65 599.196 1287.32 C 610.05 1246.16 616.734 1227.94 635.684 1189.74 C 628.394 1172.27 619.999 1154.03 612.345 1136.59 C 632.753 1107.32 646.607 1090.11 672.329 1065.55 z"/>
<path transform="translate(0,0)" fill="rgb(35,80,113)" d="M 540.385 1221.49 C 544.968 1220.32 549.623 1223.11 550.756 1227.7 C 551.889 1232.29 549.066 1236.93 544.467 1238.03 C 539.916 1239.12 535.339 1236.33 534.217 1231.79 C 533.096 1227.24 535.85 1222.65 540.385 1221.49 z"/>
<path transform="translate(0,0)" fill="rgb(35,80,113)" d="M 549.949 1158.62 C 554.439 1158.11 558.528 1161.24 559.214 1165.71 C 559.9 1170.17 556.938 1174.38 552.503 1175.25 C 549.472 1175.84 546.36 1174.72 544.395 1172.34 C 542.43 1169.96 541.928 1166.69 543.087 1163.83 C 544.246 1160.96 546.879 1158.96 549.949 1158.62 z"/>
<path transform="translate(0,0)" fill="rgb(116,192,221)" d="M 1308.05 940.179 C 1342.21 939.535 1374.6 946.818 1400.58 970.09 C 1410.28 978.778 1414.03 988.71 1411.34 1001.23 C 1412.82 1005.86 1449.18 1039.12 1455.67 1046.3 C 1528.97 1127.38 1572.13 1236.48 1581.15 1344.98 C 1584.81 1345.43 1597.95 1346.68 1599.54 1349.52 C 1605.57 1360.29 1608.28 1388.99 1597.48 1397.82 C 1595.07 1399.79 1588.99 1400.54 1586.2 1400.96 C 1563.51 1399.38 1529.14 1400.52 1505.6 1400.64 C 1486.17 1400.74 1450.53 1399.53 1432.5 1401.35 C 1413.93 1398.17 1413.21 1386.89 1413.45 1370.27 C 1413.72 1351.64 1418.09 1348.29 1434.43 1345.1 C 1413.14 1244.91 1404.8 1209.52 1339.32 1126.56 C 1328.44 1134.23 1318.03 1131.48 1307.04 1126.35 C 1307.35 1105.82 1306.02 944.927 1308.05 940.179 z"/>
<path transform="translate(0,0)" fill="rgb(35,80,113)" d="M 1411.34 1001.23 C 1412.82 1005.86 1449.18 1039.12 1455.67 1046.3 C 1528.97 1127.38 1572.13 1236.48 1581.15 1344.98 C 1565.21 1345.26 1548.8 1345.08 1532.82 1345.1 C 1529.83 1314.22 1525.1 1277.25 1515.96 1247.59 C 1539.75 1223.74 1512.88 1202.83 1494.69 1213.5 C 1490.74 1215.77 1487.92 1219.61 1486.95 1224.06 C 1483.85 1238.12 1492.08 1246.86 1505.36 1249.27 C 1513.47 1283.11 1518.46 1310.42 1521.7 1345.16 L 1500.04 1345.17 C 1498.53 1326.54 1494.74 1294.66 1489.4 1276.87 C 1479.35 1276.53 1467.95 1276.84 1457.8 1276.89 C 1450.53 1246.5 1439.45 1217.15 1424.85 1189.52 C 1432.14 1171.49 1440.75 1153.98 1447.98 1135.76 C 1433.79 1108.62 1403.7 1076.87 1382.17 1055.62 C 1385.97 1048.48 1388.95 1043.19 1393.32 1036.4 C 1430.8 1067.83 1460.29 1109.56 1483.6 1152.2 C 1475.32 1164.53 1475.22 1180.6 1491.86 1184.84 C 1497.64 1186.32 1503.77 1185.28 1508.74 1181.98 C 1518.36 1175.56 1518.71 1163.51 1512.3 1154.44 C 1508.09 1148.49 1500.37 1147.88 1493.67 1147.02 C 1468.23 1102.16 1438.4 1059.33 1398.56 1025.86 C 1401.8 1020.43 1410.05 1006.85 1411.34 1001.23 z"/>
<path transform="translate(0,0)" fill="rgb(35,80,113)" d="M 1375.84 1065.78 C 1396.66 1084.99 1420.87 1112.56 1435.82 1136.8 C 1427.88 1154.17 1420.22 1171.67 1412.83 1189.29 C 1431.69 1229.16 1437.48 1244.66 1449.04 1287.35 C 1459.49 1287.83 1469.96 1287.78 1480.41 1287.19 C 1484.35 1308.09 1486.87 1324.01 1489.22 1345.02 C 1471.48 1345.07 1452.02 1345.54 1434.43 1345.1 C 1413.14 1244.91 1404.8 1209.52 1339.32 1126.56 C 1346.89 1116.59 1350.55 1108.67 1356.99 1098.76 C 1371.35 1112.19 1381.98 1125.58 1393.68 1141.27 C 1397.28 1138.69 1399.19 1137.38 1402.34 1134.34 C 1390.78 1117.7 1377.54 1102.27 1362.85 1088.31 C 1366.93 1081.21 1371.55 1072.61 1375.84 1065.78 z"/>
<path transform="translate(0,0)" fill="rgb(35,80,113)" d="M 1503.88 1221.43 C 1506.96 1220.71 1510.17 1221.74 1512.26 1224.11 C 1514.34 1226.48 1514.96 1229.8 1513.85 1232.76 C 1512.75 1235.71 1510.11 1237.82 1506.98 1238.24 C 1502.45 1238.86 1498.25 1235.8 1497.42 1231.31 C 1496.59 1226.82 1499.44 1222.47 1503.88 1221.43 z"/>
<path transform="translate(0,0)" fill="rgb(35,80,113)" d="M 1495.39 1158.58 C 1498.43 1157.94 1501.58 1159 1503.61 1161.34 C 1505.65 1163.69 1506.26 1166.95 1505.2 1169.87 C 1504.14 1172.79 1501.57 1174.9 1498.51 1175.39 C 1493.93 1176.13 1489.6 1173.07 1488.75 1168.51 C 1487.9 1163.95 1490.85 1159.54 1495.39 1158.58 z"/>
<path transform="translate(0,0)" fill="rgb(35,80,113)" d="M 1069.15 1458.96 L 1138.52 1458.93 C 1138.29 1486.16 1137.6 1516.04 1138.49 1543.2 C 1153.44 1558.77 1168.7 1574.03 1184.26 1588.99 L 1230.88 1588.98 L 1230.77 1696.18 C 1230.79 1709.07 1231.57 1737.77 1230.36 1749.71 C 1234.4 1753.74 1241.39 1755.48 1246.38 1758.71 C 1264.32 1770.32 1280.5 1790.28 1284.11 1811.7 C 1284.11 1821.12 1285.01 1832.72 1285.09 1842.96 C 1254.33 1841.81 1220.54 1842.42 1189.66 1842.41 C 1149.58 1842.18 1109.49 1842.37 1069.42 1842.98 C 1069.49 1832.74 1069.71 1822.43 1069.07 1812.22 L 1069.18 1748.54 C 1069.88 1716.06 1069.25 1681.21 1069.26 1648.59 L 1069.15 1458.96 z"/>
<path transform="translate(0,0)" fill="rgb(116,192,221)" d="M 1097.01 1564.71 C 1086.28 1558.32 1078.02 1548.08 1086.32 1535.75 C 1089.58 1530.84 1094.79 1527.55 1100.63 1526.72 C 1119.45 1524.01 1132.54 1550.05 1110.01 1563.88 L 1108.79 1564.64 C 1108.54 1564.79 1108.3 1564.93 1108.05 1565.08 L 1108.01 1640.49 C 1114.38 1646.91 1128.08 1660.02 1133.04 1666.43 L 1132.95 1748.45 L 1147.25 1748.63 C 1147.05 1712.38 1147.23 1676.13 1147.78 1639.88 C 1137.36 1635.24 1129.65 1625.86 1135.02 1614.22 C 1137.55 1608.88 1142.2 1604.84 1147.83 1603.07 C 1159.39 1599.43 1169.44 1605.42 1171.82 1617.08 C 1174.38 1629.67 1168.55 1634.41 1158.89 1640.61 C 1159.06 1676.67 1158.99 1712.73 1158.67 1748.79 L 1190.14 1748.82 L 1190.02 1693.35 C 1184.58 1689.95 1178.82 1686.26 1177.68 1679.47 C 1175.85 1668.51 1179.82 1657.43 1191.76 1655.67 C 1197.64 1654.76 1203.64 1656.34 1208.31 1660.04 C 1221.56 1670.63 1216.47 1687.77 1201.65 1693.6 C 1201.17 1711.91 1201.03 1730.22 1201.22 1748.53 C 1206.85 1748.51 1225.72 1748.11 1230.36 1749.71 C 1234.4 1753.74 1241.39 1755.48 1246.38 1758.71 C 1264.32 1770.32 1280.5 1790.28 1284.11 1811.7 C 1284.11 1821.12 1285.01 1832.72 1285.09 1842.96 C 1254.33 1841.81 1220.54 1842.42 1189.66 1842.41 C 1149.58 1842.18 1109.49 1842.37 1069.42 1842.98 C 1069.49 1832.74 1069.71 1822.43 1069.07 1812.22 L 1069.18 1748.54 C 1086.78 1748.71 1104.39 1748.72 1122 1748.59 C 1121.99 1722.62 1122.25 1696.06 1121.82 1670.14 C 1113.41 1662.05 1105.14 1653.8 1097.04 1645.39 L 1097.01 1564.71 z"/>
<path transform="translate(0,0)" fill="rgb(35,80,113)" d="M 1069.07 1812.22 C 1138.4 1809.75 1213.74 1813.01 1284.11 1811.7 C 1284.11 1821.12 1285.01 1832.72 1285.09 1842.96 C 1254.33 1841.81 1220.54 1842.42 1189.66 1842.41 C 1149.58 1842.18 1109.49 1842.37 1069.42 1842.98 C 1069.49 1832.74 1069.71 1822.43 1069.07 1812.22 z"/>
<path transform="translate(0,0)" fill="rgb(35,80,113)" d="M 1193.19 1666.44 C 1197.68 1664.78 1202.67 1667.05 1204.39 1671.51 C 1206.11 1675.98 1203.92 1681 1199.48 1682.79 C 1196.55 1683.97 1193.21 1683.47 1190.74 1681.5 C 1188.27 1679.52 1187.06 1676.37 1187.57 1673.25 C 1188.07 1670.13 1190.22 1667.53 1193.19 1666.44 z"/>
<path transform="translate(0,0)" fill="rgb(35,80,113)" d="M 1100.34 1537.5 C 1104.86 1536.19 1109.6 1538.74 1111 1543.23 C 1112.4 1547.72 1109.96 1552.51 1105.5 1554.01 C 1102.52 1555.01 1099.25 1554.32 1096.93 1552.21 C 1094.61 1550.11 1093.61 1546.91 1094.32 1543.86 C 1095.02 1540.8 1097.33 1538.37 1100.34 1537.5 z"/>
<path transform="translate(0,0)" fill="rgb(35,80,113)" d="M 1152.29 1612.61 C 1156.93 1612.03 1161.17 1615.3 1161.8 1619.93 C 1162.42 1624.57 1159.19 1628.85 1154.56 1629.51 C 1149.87 1630.19 1145.52 1626.91 1144.89 1622.21 C 1144.26 1617.51 1147.58 1613.2 1152.29 1612.61 z"/>
<path transform="translate(0,0)" fill="rgb(35,80,113)" d="M 909.995 1458.93 L 978.253 1458.94 C 980.037 1472.53 978.376 1515.75 978.411 1531.75 L 978.732 1674.13 C 978.761 1696.31 977.851 1726.94 978.923 1748.54 C 978.917 1769.4 979.209 1791.27 978.835 1812.04 L 978.579 1843.01 C 939.29 1842.41 899.996 1842.21 860.703 1842.41 C 828.664 1842.4 794.865 1841.9 762.989 1842.96 C 763.252 1832.57 763.31 1822.2 764.598 1811.89 C 773.647 1776.47 788.579 1767.06 817.97 1749.03 C 817.93 1693.61 816.554 1635.04 817.287 1580.07 C 817.903 1583.29 816.774 1584.72 818.602 1588.69 C 828.664 1589.76 853.289 1588.96 864.428 1588.88 C 874.925 1579.11 901.467 1552.8 910.164 1542.39 C 909.383 1515.99 910.109 1485.68 909.995 1458.93 z"/>
<path transform="translate(0,0)" fill="rgb(116,192,221)" d="M 940.103 1565.01 C 934.352 1561.14 928.254 1557.17 927.059 1549.77 C 925.231 1538.45 930.34 1528.16 942.378 1526.84 C 948.346 1526.16 954.32 1528.07 958.784 1532.09 C 972.022 1543.98 963.169 1557.45 951.061 1565.4 L 951.162 1645.5 C 942.889 1653.72 934.148 1662.16 926.074 1670.5 L 926.144 1748.53 C 943.495 1748.63 961.638 1748.99 978.923 1748.54 C 978.917 1769.4 979.209 1791.27 978.835 1812.04 L 978.579 1843.01 C 939.29 1842.41 899.996 1842.21 860.703 1842.41 C 828.664 1842.4 794.865 1841.9 762.989 1842.96 C 763.252 1832.57 763.31 1822.2 764.598 1811.89 C 773.647 1776.47 788.579 1767.06 817.97 1749.03 L 846.817 1748.35 L 846.666 1693.43 C 841.442 1690.93 836.064 1687.98 834.16 1682.2 C 830.726 1671.77 833.931 1659.67 845.159 1656.44 C 851.036 1654.7 857.382 1655.59 862.554 1658.88 C 877.59 1668.46 872.727 1685.74 858.09 1693.02 L 857.911 1748.68 C 868.368 1748.65 879.021 1748.73 889.46 1748.59 C 889.261 1712.32 889.313 1676.04 889.616 1639.78 C 870.647 1631.36 871.538 1608.15 888.424 1603.19 C 894.015 1601.55 900.038 1602.32 905.04 1605.31 C 922.253 1615.52 914.145 1631.86 900.416 1640.85 C 900.705 1676.52 900.978 1712.92 900.723 1748.57 L 915.074 1748.43 C 915.268 1721.16 915.307 1693.89 915.19 1666.62 C 920.976 1660.3 935.96 1645.85 940.088 1640.5 L 940.103 1565.01 z"/>
<path transform="translate(0,0)" fill="rgb(35,80,113)" d="M 764.598 1811.89 L 978.835 1812.04 L 978.579 1843.01 C 939.29 1842.41 899.996 1842.21 860.703 1842.41 C 828.664 1842.4 794.865 1841.9 762.989 1842.96 C 763.252 1832.57 763.31 1822.2 764.598 1811.89 z"/>
<path transform="translate(0,0)" fill="rgb(35,80,113)" d="M 847.431 1666.86 C 851.562 1664.46 856.85 1665.83 859.309 1669.92 C 861.768 1674.01 860.49 1679.32 856.437 1681.84 C 853.757 1683.51 850.387 1683.61 847.618 1682.09 C 844.849 1680.58 843.112 1677.69 843.073 1674.53 C 843.035 1671.37 844.7 1668.44 847.431 1666.86 z"/>
<path transform="translate(0,0)" fill="rgb(35,80,113)" d="M 943.153 1537.6 C 946.149 1536.76 949.364 1537.61 951.562 1539.81 C 953.76 1542.01 954.599 1545.23 953.757 1548.22 C 952.915 1551.22 950.522 1553.52 947.498 1554.26 C 942.936 1555.36 938.328 1552.61 937.143 1548.06 C 935.958 1543.52 938.631 1538.87 943.153 1537.6 z"/>
<path transform="translate(0,0)" fill="rgb(35,80,113)" d="M 891.216 1613.58 C 893.958 1612.22 897.223 1612.44 899.751 1614.17 C 902.279 1615.9 903.676 1618.86 903.405 1621.91 C 903.133 1624.96 901.234 1627.62 898.441 1628.88 C 894.236 1630.76 889.295 1628.94 887.327 1624.77 C 885.359 1620.6 887.088 1615.63 891.216 1613.58 z"/>
<path transform="translate(0,0)" fill="rgb(154,164,165)" d="M 1432.5 1401.35 C 1450.53 1399.53 1486.17 1400.74 1505.6 1400.64 C 1529.14 1400.52 1563.51 1399.38 1586.2 1400.96 C 1587.75 1405.74 1589.53 1410.68 1590.73 1415.55 C 1604.01 1469.33 1577.85 1527.77 1522.65 1543.64 C 1507.91 1547.88 1496.19 1547.1 1481.2 1545.95 C 1483.6 1531.01 1484.82 1509.57 1488.67 1495.32 C 1491.38 1493.01 1494.5 1491.24 1497.23 1488.69 C 1509.18 1477.57 1512.37 1456.28 1499.93 1443.98 C 1495.49 1439.56 1489.42 1437.16 1483.15 1437.34 C 1460.4 1438.19 1460.55 1463.95 1461.43 1480.04 C 1449.5 1484.94 1434.34 1489.72 1421.91 1493.96 C 1420.38 1489.21 1419.09 1484.38 1418.06 1479.49 C 1412.43 1451.91 1417.11 1424.94 1432.5 1401.35 z"/>
<path transform="translate(0,0)" fill="rgb(182,191,192)" d="M 461.66 1401.4 C 479.068 1399.78 515.425 1400.75 533.869 1400.89 C 559.47 1401.09 591.446 1399.86 616.212 1401.2 C 633.63 1436.38 636.142 1454.68 627.324 1493.77 C 613.632 1489.35 600.531 1485.69 587.301 1479.99 C 588.101 1474.91 588.526 1471.45 588.569 1466.33 C 588.874 1430.09 544.49 1427.85 539.719 1462.66 C 537.821 1476.51 548.139 1488.33 559.515 1495.6 C 561.646 1509.69 564.357 1532.56 567.556 1545.79 C 554.7 1546.21 544.038 1546.93 531.345 1544.35 C 476.755 1533.24 445.742 1477.54 455.92 1424.43 C 457.405 1416.69 459.568 1409.01 461.66 1401.4 z"/>
<path transform="translate(0,0)" fill="rgb(116,192,221)" d="M 1012.55 273.084 C 996.296 267.426 986.542 250.817 989.517 233.866 C 992.492 216.914 1007.32 204.619 1024.53 204.834 C 1041.74 205.048 1056.25 217.709 1058.8 234.729 C 1061.36 251.75 1051.19 268.11 1034.8 273.362 C 1027.55 275.685 1019.74 275.587 1012.55 273.084 z"/>
</svg>